<svg width="39" height="89" viewBox="0 0 39 89" fill="none" xmlns="http://www.w3.org/2000/svg">
<path d="M64.1188 59.7622C61.3648 57.8633 51.7513 52.7267 47.6458 50.5333L47.5599 50.4872C47.3612 50.3809 47.1434 50.3288 46.9269 50.3288C46.6321 50.3288 46.3391 50.4257 46.0977 50.6152C43.9438 52.3055 41.5862 53.4444 39.09 54.0002C38.6491 54.0984 38.2876 54.412 38.1266 54.8349L35.5833 61.5383L33.0393 54.8349C32.8793 54.4123 32.5172 54.0984 32.0755 54.0002C29.5797 53.4444 27.2221 52.3055 25.0676 50.615C24.8262 50.4257 24.5335 50.3288 24.2387 50.3288C24.0222 50.3288 23.8049 50.3812 23.6059 50.4875C19.5467 52.6561 9.80783 57.9007 7.05879 59.7546C2.40795 62.8877 0.37733 74.2213 0.0170754 76.4614C-0.0187929 76.6837 0.00215211 76.9109 0.0770306 77.1233C0.243805 77.5927 4.51005 88.6268 35.5836 88.6268C66.6558 88.6268 70.9233 77.5927 71.0891 77.1233C71.165 76.9107 71.1852 76.6834 71.1493 76.4614C70.1717 70.3797 68.1578 62.5458 64.1188 59.7622Z" fill="#FBFCFF"/>
<path d="M9.7555 39.8178H14.0699C15.6942 39.8178 17.0109 38.5006 17.0109 36.8758V24.4143C17.0109 23.3288 16.4215 22.3834 15.5471 21.8737C16.5103 11.6695 20.4482 4.59875 35.5833 4.59875C44.2747 4.59875 49.7008 6.82835 52.6585 11.6151C54.3792 14.4005 55.2068 17.9983 55.5937 21.8889C54.7331 22.402 54.155 23.3398 54.155 24.4143V36.8758C54.155 38.2771 55.1355 39.4466 56.4467 39.7435C54.5441 40.9866 50.6067 42.2574 42.4559 42.2574C41.7951 42.2574 41.1073 42.249 40.3897 42.2317C39.9695 41.4251 39.128 40.8732 38.1557 40.8732H34.5599C33.1697 40.8732 32.0418 42 32.0418 43.3905C32.0418 44.7807 33.17 45.9073 34.5599 45.9073H38.1557C38.9956 45.9073 39.7381 45.4944 40.1947 44.8622C40.9521 44.8813 41.6935 44.8933 42.4101 44.8933C51.599 44.8933 57.4408 43.3251 59.8058 40.2129C59.9068 40.0804 59.9982 39.9485 60.0828 39.8178H61.4115C63.0357 39.8178 64.3524 38.5006 64.3524 36.8758V24.4143C64.3524 22.79 63.0357 21.4729 61.4115 21.4729H59.7885C59.3324 16.772 58.3202 12.7702 56.2391 9.40197C52.4923 3.3376 45.7354 0.389587 35.5831 0.389587C25.4302 0.389587 18.6736 3.3376 14.9266 9.40197C12.8454 12.7699 11.8338 16.7715 11.3769 21.4729H9.75524C8.13043 21.4729 6.81299 22.79 6.81299 24.4143V36.8758C6.81325 38.5006 8.13069 39.8178 9.7555 39.8178Z" fill="#FBFCFF"/>
<path d="M18.5955 39.6948C22.6353 48.616 31.2887 52.4992 35.5837 52.4992C38.4066 52.4992 43.1135 50.82 47.1551 47.1355C45.6774 47.2386 44.0976 47.291 42.4105 47.291C42.0154 47.291 41.5997 47.2876 41.1546 47.2803C40.3042 47.9356 39.2504 48.305 38.1561 48.305H34.5603C31.8498 48.305 29.645 46.1005 29.645 43.3908C29.645 40.6807 31.85 38.4758 34.5603 38.4758H38.1561C39.4547 38.4758 40.67 38.9821 41.5711 39.8552C41.8709 39.8587 42.1663 39.8602 42.4563 39.8602C47.0978 39.8602 50.1573 39.4345 52.1591 38.9211C51.8994 38.2893 51.758 37.5979 51.758 36.8761V24.4143C51.758 23.1178 52.239 21.8752 53.071 20.9154C52.6272 17.4592 51.8214 14.821 50.6197 12.8752C48.1413 8.86419 43.3635 6.99615 35.584 6.99615C29.1301 6.99615 24.6735 8.33585 21.9595 11.092C19.8556 13.2283 18.6363 16.2772 18.0669 20.8811C18.917 21.8449 19.4089 23.1 19.4089 24.4146V36.8761C19.4084 37.9113 19.1076 38.8755 18.5955 39.6948Z" fill="#FBFCFF"/>
</svg>
