<svg width="75" height="75" viewBox="0 0 75 75" fill="none" xmlns="http://www.w3.org/2000/svg">
<path d="M29.5938 71.875H42.4062V74.4375H29.5938V71.875Z" fill="white"/>
<path d="M24.4688 71.875H27.0312V74.4375H24.4688V71.875Z" fill="white"/>
<path d="M71.875 38.5625H74.4375V41.125H71.875V38.5625Z" fill="white"/>
<path d="M71.875 23.1875H74.4375V36H71.875V23.1875Z" fill="white"/>
<path d="M20.0484 55.5262L18.0625 54.1937L14.9234 56.2822C14.7158 56.424 14.4702 56.4999 14.2188 56.4999C13.9673 56.4999 13.7217 56.424 13.5141 56.2822L10.375 54.1937L8.38906 55.5262C8.21281 55.6423 8.06796 55.8001 7.96738 55.9856C7.86679 56.1711 7.81359 56.3786 7.8125 56.5897V59.0625H20.625V56.5897C20.6239 56.3786 20.5707 56.1711 20.4701 55.9856C20.3695 55.8001 20.2247 55.6423 20.0484 55.5262Z" fill="white"/>
<path d="M12.963 52.4769L12.6812 52.6562L14.2187 53.6812L15.7562 52.6562L15.4743 52.4769C14.6543 52.716 13.783 52.716 12.963 52.4769Z" fill="white"/>
<path d="M12.7838 44.5844L14.5903 42.7778C14.8322 42.5378 15.1592 42.4031 15.5 42.4031C15.8408 42.4031 16.1678 42.5378 16.4097 42.7778L16.7044 43.0725C16.5525 42.4667 16.1847 41.9371 15.6699 41.5834C15.1551 41.2297 14.5289 41.0762 13.9088 41.1517C13.2888 41.2273 12.7178 41.5267 12.303 41.9936C11.8882 42.4606 11.6582 43.0629 11.6562 43.6875V44.9688H11.8741C12.0436 44.9681 12.2113 44.9337 12.3674 44.8678C12.5236 44.8018 12.6651 44.7055 12.7838 44.5844Z" fill="white"/>
<path d="M12.5147 49.4403C12.9881 49.8495 13.593 50.0747 14.2188 50.0747C14.8445 50.0747 15.4494 49.8495 15.9228 49.4403C16.1934 49.2015 16.41 48.9076 16.558 48.5784C16.706 48.2492 16.7821 47.8922 16.7813 47.5313V46.7753L15.5 45.4941L14.6031 46.4038C14.245 46.7623 13.8195 47.0465 13.3512 47.24C12.8828 47.4335 12.3808 47.5325 11.8741 47.5313H11.6562C11.6565 47.8674 11.7234 48.2002 11.8532 48.5103C11.9829 48.8204 12.1729 49.1017 12.4122 49.3378L12.5147 49.4403Z" fill="white"/>
<path d="M12.5147 23.8153C12.9881 24.2245 13.593 24.4497 14.2188 24.4497C14.8445 24.4497 15.4494 24.2245 15.9228 23.8153C16.1934 23.5765 16.41 23.2826 16.558 22.9534C16.706 22.6242 16.7821 22.2672 16.7813 21.9063V21.1503L15.5 19.8691L14.6031 20.7788C14.245 21.1373 13.8195 21.4215 13.3512 21.615C12.8828 21.8085 12.3808 21.9075 11.8741 21.9063H11.6562C11.6565 22.2424 11.7234 22.5752 11.8532 22.8853C11.9829 23.1954 12.1729 23.4767 12.4122 23.7128L12.5147 23.8153Z" fill="white"/>
<path d="M12.963 26.8519L12.6812 27.0312L14.2187 28.0562L15.7562 27.0312L15.4743 26.8519C14.6543 27.091 13.783 27.091 12.963 26.8519Z" fill="white"/>
<path d="M12.7838 18.9594L14.5903 17.1528C14.8322 16.9128 15.1592 16.7781 15.5 16.7781C15.8408 16.7781 16.1678 16.9128 16.4097 17.1528L16.7044 17.4475C16.5525 16.8417 16.1847 16.3121 15.6699 15.9584C15.1551 15.6047 14.5289 15.4512 13.9088 15.5267C13.2888 15.6023 12.7178 15.9017 12.303 16.3686C11.8882 16.8356 11.6582 17.4379 11.6562 18.0625V19.3438H11.8741C12.0436 19.3431 12.2113 19.3087 12.3674 19.2428C12.5236 19.1768 12.6651 19.0805 12.7838 18.9594Z" fill="white"/>
<path d="M0.125 10.375V60.3438C0.128042 61.3622 0.533984 62.3381 1.25417 63.0583C1.97435 63.7785 2.95026 64.1845 3.96875 64.1875H43.0212L43.9694 62.9191C43.619 62.245 43.3275 61.542 43.0981 60.8178L39.6644 60.3309C39.3587 60.2877 39.0789 60.1356 38.8765 59.9026C38.674 59.6695 38.5625 59.3712 38.5625 59.0625V53.9375C38.5625 53.6288 38.674 53.3305 38.8765 53.0974C39.0789 52.8644 39.3587 52.7123 39.6644 52.6691L43.0981 52.1822C43.3275 51.458 43.619 50.755 43.9694 50.0809L41.8809 47.3006C41.6945 47.0532 41.6046 46.7462 41.6282 46.4372C41.6518 46.1283 41.7872 45.8385 42.0091 45.6222L45.6222 42.0091C45.8385 41.7872 46.1283 41.6518 46.4372 41.6282C46.7462 41.6046 47.0532 41.6945 47.3006 41.8809L50.0809 43.9694C50.755 43.619 51.458 43.3275 52.1822 43.0981L52.6691 39.6644C52.7123 39.3587 52.8644 39.0789 53.0974 38.8765C53.3305 38.674 53.6288 38.5625 53.9375 38.5625H59.0625C59.3712 38.5625 59.6695 38.674 59.9026 38.8765C60.1356 39.0789 60.2877 39.3587 60.3309 39.6644L60.8178 43.0981C61.542 43.3275 62.245 43.619 62.9191 43.9694L64.1875 43.0212V10.375H0.125ZM29.5938 20.625H32.1562V23.1875H29.5938V20.625ZM29.5938 46.25H32.1562V48.8125H29.5938V46.25ZM23.1875 60.3438C23.1875 60.6836 23.0525 61.0094 22.8122 61.2497C22.572 61.49 22.2461 61.625 21.9062 61.625H6.53125C6.19144 61.625 5.86555 61.49 5.62527 61.2497C5.38499 61.0094 5.25 60.6836 5.25 60.3438V56.5897C5.25044 55.9557 5.40738 55.3317 5.70688 54.7729C6.00637 54.2141 6.43918 53.7379 6.96688 53.3866L10.5031 51.0419C9.59731 50.0978 9.09221 48.8396 9.09375 47.5312V43.6875C9.09375 42.3283 9.6337 41.0247 10.5948 40.0636C11.556 39.1025 12.8595 38.5625 14.2188 38.5625C15.578 38.5625 16.8815 39.1025 17.8427 40.0636C18.8038 41.0247 19.3438 42.3283 19.3438 43.6875V47.5312C19.3393 48.8371 18.8297 50.0906 17.9216 51.0291L21.4706 53.3866C21.9983 53.7379 22.4311 54.2141 22.7306 54.7729C23.0301 55.3317 23.1871 55.9557 23.1875 56.5897V60.3438ZM23.1875 34.7188C23.1875 35.0586 23.0525 35.3845 22.8122 35.6247C22.572 35.865 22.2461 36 21.9062 36H6.53125C6.19144 36 5.86555 35.865 5.62527 35.6247C5.38499 35.3845 5.25 35.0586 5.25 34.7188V30.9647C5.25044 30.3307 5.40738 29.7067 5.70688 29.1479C6.00637 28.5891 6.43918 28.1129 6.96688 27.7616L10.5031 25.4169C9.59731 24.4728 9.09221 23.2146 9.09375 21.9062V18.0625C9.09375 16.7033 9.6337 15.3997 10.5948 14.4386C11.556 13.4775 12.8595 12.9375 14.2188 12.9375C15.578 12.9375 16.8815 13.4775 17.8427 14.4386C18.8038 15.3997 19.3438 16.7033 19.3438 18.0625V21.9062C19.3393 23.2121 18.8297 24.4656 17.9216 25.4041L21.4706 27.7616C21.9983 28.1129 22.4311 28.5891 22.7306 29.1479C23.0301 29.7067 23.1871 30.3307 23.1875 30.9647V34.7188ZM36 59.0625H29.5938V56.5H36V59.0625ZM36 53.9375H29.5938V51.375H36V53.9375ZM39.8438 48.8125H34.7188V46.25H39.8438V48.8125ZM47.5312 33.4375H29.5938V30.875H47.5312V33.4375ZM47.5312 28.3125H29.5938V25.75H47.5312V28.3125ZM47.5312 23.1875H34.7188V20.625H47.5312V23.1875Z" fill="white"/>
<path d="M20.0484 29.9012L18.0625 28.5687L14.9234 30.6572C14.7158 30.799 14.4702 30.8749 14.2188 30.8749C13.9673 30.8749 13.7217 30.799 13.5141 30.6572L10.375 28.5687L8.38906 29.9012C8.21281 30.0173 8.06796 30.1751 7.96738 30.3606C7.86679 30.5461 7.81359 30.7536 7.8125 30.9647V33.4375H20.625V30.9647C20.6239 30.7536 20.5707 30.5461 20.4701 30.3606C20.3695 30.1751 20.2247 30.0173 20.0484 29.9012Z" fill="white"/>
<path d="M68.7231 54.6038C68.4703 54.5678 68.234 54.4571 68.0445 54.2859C67.855 54.1147 67.721 53.8907 67.6597 53.6428C67.3917 52.5828 66.9686 51.5682 66.4041 50.6319C66.2775 50.4129 66.2173 50.1619 66.231 49.9093C66.2446 49.6568 66.3315 49.4137 66.4809 49.2097L68.4028 46.66L66.34 44.5972L63.7903 46.5191C63.5863 46.6685 63.3432 46.7554 63.0907 46.769C62.8381 46.7827 62.5871 46.7225 62.3681 46.5959C61.4318 46.0314 60.4172 45.6083 59.3572 45.3403C59.1093 45.279 58.8853 45.145 58.7141 44.9555C58.5429 44.766 58.4322 44.5297 58.3962 44.2769L57.9478 41.125H55.0522L54.6038 44.2769C54.5678 44.5297 54.4571 44.766 54.2859 44.9555C54.1147 45.145 53.8907 45.279 53.6428 45.3403C52.5828 45.6083 51.5682 46.0314 50.6319 46.5959C50.4129 46.7225 50.1619 46.7827 49.9093 46.769C49.6568 46.7554 49.4137 46.6685 49.2097 46.5191L46.66 44.5972L44.5972 46.66L46.5191 49.2097C46.6685 49.4137 46.7554 49.6568 46.769 49.9093C46.7827 50.1619 46.7225 50.4129 46.5959 50.6319C46.0314 51.5682 45.6083 52.5828 45.3403 53.6428C45.279 53.8907 45.145 54.1147 44.9555 54.2859C44.766 54.4571 44.5297 54.5678 44.2769 54.6038L41.125 55.0522V57.9478L44.2769 58.3962C44.5297 58.4322 44.766 58.5429 44.9555 58.7141C45.145 58.8853 45.279 59.1093 45.3403 59.3572C45.6083 60.4172 46.0314 61.4318 46.5959 62.3681C46.7225 62.5871 46.7827 62.8381 46.769 63.0907C46.7554 63.3432 46.6685 63.5863 46.5191 63.7903L44.5972 66.34L46.66 68.4028L49.2097 66.4809C49.4137 66.3315 49.6568 66.2446 49.9093 66.231C50.1619 66.2173 50.4129 66.2775 50.6319 66.4041C51.5682 66.9686 52.5828 67.3917 53.6428 67.6597C53.8907 67.721 54.1147 67.855 54.2859 68.0445C54.4571 68.234 54.5678 68.4703 54.6038 68.7231L55.0522 71.875H57.9478L58.3962 68.7231C58.4322 68.4703 58.5429 68.234 58.7141 68.0445C58.8853 67.855 59.1093 67.721 59.3572 67.6597C60.4172 67.3917 61.4318 66.9686 62.3681 66.4041C62.5871 66.2775 62.8381 66.2173 63.0907 66.231C63.3432 66.2446 63.5863 66.3315 63.7903 66.4809L66.34 68.4028L68.4028 66.34L66.4809 63.7903C66.3315 63.5863 66.2446 63.3432 66.231 63.0907C66.2173 62.8381 66.2775 62.5871 66.4041 62.3681C66.9686 61.4318 67.3917 60.4172 67.6597 59.3572C67.721 59.1093 67.855 58.8853 68.0445 58.7141C68.234 58.5429 68.4703 58.4322 68.7231 58.3962L71.875 57.9478V55.0522L68.7231 54.6038ZM46.25 57.7812H43.6875V55.2188H46.25V57.7812ZM55.2188 43.6875H57.7812V46.25H55.2188V43.6875ZM46.5319 48.3512L48.3512 46.5319L50.1578 48.3512L48.3512 50.1578L46.5319 48.3512ZM48.3512 66.4681L46.5319 64.6488L48.3512 62.8422L50.1578 64.6488L48.3512 66.4681ZM57.7812 69.3125H55.2188V66.75H57.7812V69.3125ZM56.5 64.1875C54.9796 64.1875 53.4933 63.7366 52.2291 62.8919C50.9649 62.0472 49.9795 60.8466 49.3977 59.4419C48.8158 58.0372 48.6636 56.4915 48.9602 55.0002C49.2568 53.509 49.989 52.1392 51.0641 51.0641C52.1392 49.989 53.509 49.2568 55.0002 48.9602C56.4915 48.6636 58.0372 48.8158 59.4419 49.3977C60.8466 49.9795 62.0472 50.9649 62.8919 52.2291C63.7366 53.4933 64.1875 54.9796 64.1875 56.5C64.1875 58.5389 63.3776 60.4942 61.9359 61.9359C60.4942 63.3776 58.5389 64.1875 56.5 64.1875ZM66.4681 64.6488L64.6488 66.4681L62.8422 64.6488L64.6488 62.8422L66.4681 64.6488ZM64.6488 50.1578L62.8422 48.3512L64.6488 46.5319L66.4681 48.3512L64.6488 50.1578ZM69.3125 57.7812H66.75V55.2188H69.3125V57.7812Z" fill="white"/>
<path d="M60.3438 0.125H3.96875C2.95026 0.128042 1.97435 0.533984 1.25417 1.25417C0.533984 1.97435 0.128042 2.95026 0.125 3.96875V7.8125H64.1875V3.96875C64.1845 2.95026 63.7785 1.97435 63.0583 1.25417C62.3381 0.533984 61.3622 0.128042 60.3438 0.125ZM7.8125 5.25H5.25V2.6875H7.8125V5.25ZM12.9375 5.25H10.375V2.6875H12.9375V5.25ZM18.0625 5.25H15.5V2.6875H18.0625V5.25Z" fill="white"/>
<path d="M56.5 61.625C59.3305 61.625 61.625 59.3305 61.625 56.5C61.625 53.6695 59.3305 51.375 56.5 51.375C53.6695 51.375 51.375 53.6695 51.375 56.5C51.375 59.3305 53.6695 61.625 56.5 61.625Z" fill="white"/>
</svg>
