<svg width="85" height="73" viewBox="0 0 85 73" fill="none" xmlns="http://www.w3.org/2000/svg">
<path d="M63.9902 12.6022L66.2344 8.99493C74.6191 15.0498 80.4724 24.0803 82.4534 34.261C81.0673 33.3655 79.4549 32.7932 77.7243 32.652C75.5729 24.6048 70.6849 17.5301 63.9846 12.6109L63.9902 12.6022ZM12.7812 32.1685C10.8641 32.1685 9.29557 33.7371 9.29557 35.6543V54.0983C9.29557 56.0155 10.8641 57.5841 12.7812 57.5841C14.6982 57.5841 16.267 56.0155 16.267 54.0983V35.6543C16.2668 33.7371 14.6982 32.1685 12.7812 32.1685ZM6.57886 35.4937C3.13658 36.2096 0.529297 39.2767 0.529297 42.9232V46.8296C0.529297 50.4761 3.13658 53.5432 6.57886 54.2589C6.5775 54.2055 6.57682 54.1522 6.57682 54.0985V35.6543C6.57682 35.6006 6.5775 35.5471 6.57886 35.4937ZM68.7332 35.6543V54.0983C68.7332 56.0155 70.3018 57.5841 72.2188 57.5841C74.1359 57.5841 75.7046 56.0155 75.7046 54.0983V35.6543C75.7046 33.7371 74.1361 32.1685 72.2188 32.1685C70.3018 32.1685 68.7332 33.7371 68.7332 35.6543ZM23.3182 11.1662C23.6049 11.6268 24.2077 11.775 24.6752 11.4999C30.0867 8.3166 36.2039 6.6461 42.5 6.6461C48.7963 6.6461 54.9131 8.3166 60.3248 11.5001C60.7924 11.7752 61.3953 11.627 61.6818 11.1664L64.0157 7.41465C64.3141 6.93513 64.1618 6.31288 63.676 6.02503C57.2608 2.22473 49.9732 0.217102 42.5 0.217102C35.027 0.217102 27.7392 2.22473 21.3238 6.02503C20.838 6.31288 20.6858 6.93513 20.9842 7.41465L23.3182 11.1662ZM18.7655 8.99493C10.3807 15.0499 4.52739 24.0801 2.54644 34.261C3.93249 33.3653 5.54488 32.7933 7.27554 32.6521C9.42692 24.6048 14.3149 17.5303 21.0152 12.611L21.0096 12.6024L18.7655 8.99493ZM60.2176 62.0738H24.7824C23.5885 62.0738 22.6118 61.0971 22.6118 59.9032V29.8494C22.6118 28.6556 23.5887 27.6789 24.7824 27.6789H36.0688V36.1969C36.0688 37.0079 37.0091 37.4529 37.6363 36.9388L41.8917 33.4499C42.249 33.157 42.7508 33.157 43.1082 33.4499L47.3637 36.9388C47.9909 37.4529 48.931 37.0079 48.931 36.1969V27.6789H60.2176C61.4115 27.6789 62.3882 28.6556 62.3882 29.8494V59.9032C62.3882 61.0971 61.4115 62.0738 60.2176 62.0738ZM38.6757 50.5755C38.6757 50.3454 38.4875 50.1571 38.2574 50.1571H29.5423C29.3122 50.1571 29.1239 50.3454 29.1239 50.5755V55.1433C29.1239 55.3734 29.3122 55.5617 29.5423 55.5617H38.2574C38.4875 55.5617 38.6757 55.3734 38.6757 55.1433V50.5755ZM78.4211 35.4937C78.4225 35.5471 78.4232 35.6006 78.4232 35.6543V54.0983C78.4232 54.152 78.4225 54.2054 78.4211 54.2587C81.8634 53.543 84.4707 50.4761 84.4707 46.8294V42.9231C84.4707 39.2767 81.8634 36.2096 78.4211 35.4937ZM78.7284 60.3876C78.7284 64.6516 75.2473 68.1327 70.9833 68.1327H49.1513C48.8595 67.0246 47.8464 66.2012 46.65 66.2012H38.3502C36.9279 66.2012 35.7643 67.3648 35.7643 68.787V70.197C35.7643 71.6193 36.9279 72.7829 38.3502 72.7829H46.65C47.8464 72.7829 48.8595 71.9595 49.1513 70.8514H70.9833C76.7483 70.8514 81.4471 66.1524 81.4471 60.3876V56.0641C80.5995 56.4855 79.6867 56.7938 78.7284 56.9686V60.3876Z" fill="white"/>
</svg>
