<svg width="24" height="25" viewBox="0 0 24 25" fill="none" xmlns="http://www.w3.org/2000/svg">
<path d="M14.7763 6.19137C14.901 5.49041 14.9477 4.27022 13.956 3.7406C13.3381 3.41349 13.0265 2.97733 12.876 2.56714C12.7254 3.24214 12.6994 3.98983 13.1511 4.43637C13.7898 5.00233 14.3454 5.62022 14.7763 6.19137Z" fill="#1E2944"/>
<path d="M17.6529 7.35956C17.9436 8.52263 17.7411 9.83629 16.7598 10.5684C16.6144 10.6774 16.4119 10.6099 16.3548 10.4386C15.1346 6.55475 12.5332 4.07802 10.0046 3.10706C10.2538 5.72917 8.63382 8.85494 5.17055 12.4117C5.01478 12.5726 4.73959 12.474 4.72401 12.2507C4.65132 11.1967 4.57343 10.4386 4.1217 9.54552C3.43113 12.4428 -0.639645 15.9061 1.92536 19.5978C2.71978 20.7401 4.15286 21.8305 6.30766 22.9157C5.80401 21.8253 5.63786 20.8336 5.79882 19.9094C5.99093 18.8397 6.61401 17.9622 7.19555 17.2457C8.52997 15.6101 8.88305 13.9849 8.88824 13.9694C8.92978 13.7617 9.18939 13.6942 9.33478 13.8499C9.37632 13.8967 10.2019 14.8157 10.1604 16.3059C11.5104 14.6236 11.8011 12.3286 11.5467 11.3784C11.4896 11.1551 11.7284 10.9734 11.9309 11.0876C16.0848 13.5228 18.1254 18.6996 16.1263 22.9053C19.9219 20.9426 21.9209 18.5334 22.0715 15.7347C22.2377 12.6349 19.9894 9.3534 17.6529 7.35956Z" fill="#1E2944"/>
<path d="M4.27229 5.79154C5.72095 6.56519 5.38864 8.33577 5.37825 8.40846C5.32114 8.69923 5.73133 8.84981 5.86633 8.57461C5.93383 8.44481 7.48114 5.32423 5.63787 4.33769C4.23595 3.59 4.82268 2.20365 4.84864 2.14654C4.93171 1.76231 4.54229 1.68961 4.39691 1.89211C3.86729 2.65019 3.28575 3.91192 3.50383 4.82058C3.60768 5.24635 3.8621 5.57346 4.27229 5.79154Z" fill="#1E2944"/>
<path d="M21.4694 3.46536C20.0675 2.71767 20.6542 1.33132 20.6802 1.27421C20.8048 0.993824 20.4153 0.76017 20.2284 1.01979C19.3457 2.2919 18.7123 4.17152 20.1038 4.91402C20.2284 4.98152 20.3894 4.93479 20.4569 4.80498C20.5244 4.68036 20.4777 4.5194 20.3478 4.4519C19.6157 4.06248 19.7403 3.20575 20.0519 2.4269C20.1453 2.92017 20.4413 3.50171 21.2202 3.91709C22.6169 4.66479 21.2409 7.43229 21.2305 7.45825C21.1682 7.58805 21.215 7.74382 21.3448 7.80613C21.4694 7.86844 21.6303 7.82171 21.6927 7.6919C21.7602 7.56729 23.3127 4.44671 21.4694 3.46536Z" fill="#1E2944"/>
<path d="M1.63465 22.1992C1.0635 22.1992 0.596191 22.6665 0.596191 23.2377C0.596191 23.8088 1.0635 24.2761 1.63465 24.2761C2.20581 24.2761 2.67311 23.8088 2.67311 23.2377C2.67311 22.6613 2.20581 22.1992 1.63465 22.1992Z" fill="#1E2944"/>
<path d="M13.3174 18.0454C12.6008 18.0454 12.0193 18.6269 12.0193 19.3435C12.0193 20.06 12.6008 20.6416 13.3174 20.6416C14.0339 20.6416 14.6154 20.06 14.6154 19.3435C14.6154 18.6269 14.0339 18.0454 13.3174 18.0454Z" fill="#1E2944"/>
<path d="M22.6635 2.72804C22.9503 2.72804 23.1827 2.49557 23.1827 2.20881C23.1827 1.92204 22.9503 1.68958 22.6635 1.68958C22.3768 1.68958 22.1443 1.92204 22.1443 2.20881C22.1443 2.49557 22.3768 2.72804 22.6635 2.72804Z" fill="#1E2944"/>
<path d="M17.4711 4.28578C17.7579 4.28578 17.9904 4.05331 17.9904 3.76655C17.9904 3.47978 17.7579 3.24731 17.4711 3.24731C17.1844 3.24731 16.9519 3.47978 16.9519 3.76655C16.9519 4.05331 17.1844 4.28578 17.4711 4.28578Z" fill="#1E2944"/>
<path d="M7.6059 4.28578C7.89266 4.28578 8.12513 4.05331 8.12513 3.76655C8.12513 3.47978 7.89266 3.24731 7.6059 3.24731C7.31914 3.24731 7.08667 3.47978 7.08667 3.76655C7.08667 4.05331 7.31914 4.28578 7.6059 4.28578Z" fill="#1E2944"/>
<path d="M1.89423 6.36268C2.18099 6.36268 2.41346 6.13021 2.41346 5.84345C2.41346 5.55669 2.18099 5.32422 1.89423 5.32422C1.60747 5.32422 1.375 5.55669 1.375 5.84345C1.375 6.13021 1.60747 6.36268 1.89423 6.36268Z" fill="#1E2944"/>
<path d="M9.16352 21.4204C9.45028 21.4204 9.68275 21.188 9.68275 20.9012C9.68275 20.6144 9.45028 20.382 9.16352 20.382C8.87675 20.382 8.64429 20.6144 8.64429 20.9012C8.64429 21.188 8.87675 21.4204 9.16352 21.4204Z" fill="#1E2944"/>
<path d="M20.0673 24.0165C20.3541 24.0165 20.5866 23.784 20.5866 23.4973C20.5866 23.2105 20.3541 22.978 20.0673 22.978C19.7806 22.978 19.5481 23.2105 19.5481 23.4973C19.5481 23.784 19.7806 24.0165 20.0673 24.0165Z" fill="#1E2944"/>
</svg>
