<svg width="78" height="78" viewBox="0 0 78 78" fill="none" xmlns="http://www.w3.org/2000/svg">
<path d="M37.3887 28H47.25C48.7687 28 50 26.7687 50 25.25C50 23.7313 48.7687 22.5 47.25 22.5H37.3887L38.1943 21.6943C39.2686 20.6201 39.2686 18.8799 38.1943 17.8057C37.1201 16.7314 35.3799 16.7314 34.3057 17.8057L28.8057 23.3057C27.7314 24.3799 27.7314 26.1201 28.8057 27.1943L34.3057 32.6943C34.8428 33.2314 35.5464 33.5 36.25 33.5C36.9536 33.5 37.6572 33.2314 38.1943 32.6943C39.2686 31.6201 39.2686 29.8799 38.1943 28.8057L37.3887 28Z" fill="white"/>
<path d="M30.75 11.5H40.6113L39.8057 12.3057C38.7314 13.3799 38.7314 15.1201 39.8057 16.1943C40.3428 16.7314 41.0464 17 41.75 17C42.4536 17 43.1572 16.7314 43.6943 16.1943L49.1943 10.6943C50.2686 9.62012 50.2686 7.87988 49.1943 6.80566L43.6943 1.30566C42.6201 0.231445 40.8799 0.231445 39.8057 1.30566C38.7314 2.37988 38.7314 4.12012 39.8057 5.19434L40.6113 6H30.75C29.2313 6 28 7.23132 28 8.75C28 10.2687 29.2313 11.5 30.75 11.5Z" fill="white"/>
<path d="M17 33.5C21.5563 33.5 25.25 29.8063 25.25 25.25C25.25 20.6937 21.5563 17 17 17C12.4437 17 8.75 20.6937 8.75 25.25C8.75 29.8063 12.4437 33.5 17 33.5Z" fill="white"/>
<path d="M19.75 33.5H17H14.25C8.18469 33.5 3.25 38.4333 3.25 44.5H30.75C30.75 38.4333 25.8153 33.5 19.75 33.5Z" fill="white"/>
<path d="M61 33.5C65.5563 33.5 69.25 29.8063 69.25 25.25C69.25 20.6937 65.5563 17 61 17C56.4437 17 52.75 20.6937 52.75 25.25C52.75 29.8063 56.4437 33.5 61 33.5Z" fill="white"/>
<path d="M16.1406 55.8008C16.6428 55.4006 17.3572 55.4006 17.8594 55.8008L22.5 59.5135V47.25H11.5V59.5135L16.1406 55.8008Z" fill="white"/>
<path d="M30.75 47.25H25.25V62.375C25.25 62.9041 24.9465 63.3848 24.4712 63.6144C24.2819 63.7057 24.0778 63.75 23.875 63.75C23.5688 63.75 23.264 63.6479 23.0156 63.4492L17 58.6354L10.9844 63.4492C10.5721 63.7795 10.0082 63.8427 9.52881 63.6144C9.05347 63.3848 8.75 62.9041 8.75 62.375V47.25H3.25C1.73132 47.25 0.5 48.4813 0.5 50V74.75C0.5 76.2687 1.73132 77.5 3.25 77.5H30.75C32.2687 77.5 33.5 76.2687 33.5 74.75V50C33.5 48.4813 32.2687 47.25 30.75 47.25Z" fill="white"/>
<path d="M70.1013 47.25H51.8987C47.4449 50.2076 44.5 55.264 44.5 61C44.5 70.0986 51.9014 77.5 61 77.5C70.0986 77.5 77.5 70.0986 77.5 61C77.5 55.264 74.5551 50.2076 70.1013 47.25ZM61 59.625C64.032 59.625 66.5 62.0917 66.5 65.125C66.5 67.6806 64.74 69.8148 62.375 70.4296V70.625C62.375 71.385 61.76 72 61 72C60.24 72 59.625 71.385 59.625 70.625V70.4296C57.26 69.8148 55.5 67.6806 55.5 65.125C55.5 64.365 56.115 63.75 56.875 63.75C57.635 63.75 58.25 64.365 58.25 65.125C58.25 66.641 59.4827 67.875 61 67.875C62.5173 67.875 63.75 66.641 63.75 65.125C63.75 63.609 62.5173 62.375 61 62.375C57.968 62.375 55.5 59.9083 55.5 56.875C55.5 54.3194 57.26 52.1852 59.625 51.5704V51.375C59.625 50.615 60.24 50 61 50C61.76 50 62.375 50.615 62.375 51.375V51.5704C64.74 52.1852 66.5 54.3194 66.5 56.875C66.5 57.635 65.885 58.25 65.125 58.25C64.365 58.25 63.75 57.635 63.75 56.875C63.75 55.359 62.5173 54.125 61 54.125C59.4827 54.125 58.25 55.359 58.25 56.875C58.25 58.391 59.4827 59.625 61 59.625Z" fill="white"/>
<path d="M47.25 44.5H74.75C74.75 38.4333 69.8153 33.5 63.75 33.5H61H58.25C52.1847 33.5 47.25 38.4333 47.25 44.5Z" fill="white"/>
</svg>
