<svg width="32" height="32" viewBox="0 0 32 32" fill="none" xmlns="http://www.w3.org/2000/svg">
<path d="M21.3125 0.549188V5.625H26.3883L21.3125 0.549188Z" fill="white"/>
<path d="M11.4312 8.194H17.2262C18.8085 8.194 20.2969 8.80906 21.4176 9.92587L23.9296 12.4127H26.9375V7.5H20.375C19.8573 7.5 19.4375 7.08025 19.4375 6.5625V0H6C5.48225 0 5.0625 0.41975 5.0625 0.9375V10.069H6.58969C7.91631 8.85731 9.62275 8.194 11.4312 8.194Z" fill="white"/>
<path d="M8.09519 23.9616C7.41112 23.1464 7.08544 22.1136 7.17819 21.0533C7.27094 19.9931 7.771 19.0325 8.58631 18.3484L13.3504 14.3508C13.5192 14.2091 13.7326 14.1315 13.9531 14.1315H16.668C16.9166 14.1315 17.1551 14.2302 17.3309 14.4061L20.73 17.8051C21.5427 18.6179 22.855 18.6267 23.6786 17.8316C24.5303 17.0094 24.5099 15.6257 23.6686 14.7928L20.0957 11.2558C19.3288 10.4905 18.3099 10.069 17.2262 10.0689H11.4311C10.0121 10.0689 8.678 10.6216 7.67469 11.6249L7.35569 11.9439H0.9375C0.41975 11.9439 0 12.3637 0 12.8814V22.8814C0 23.3991 0.41975 23.8189 0.9375 23.8189H4.49225C5.62875 25.3732 7.46681 26.3189 9.4095 26.3189H10.2487C10.0809 25.9611 9.96819 25.5809 9.91362 25.1886C9.21244 24.9607 8.58112 24.5407 8.09519 23.9616Z" fill="white"/>
<path d="M31.0625 14.2878H25.6417C26.0016 14.8925 26.1951 15.5846 26.1969 16.3072C26.1997 17.3739 25.7858 18.3767 25.0316 19.1309C24.2559 19.9067 23.2369 20.2946 22.2179 20.2946C21.1989 20.2946 20.18 19.9067 19.4043 19.1309L16.2798 16.0065H14.2944L9.79163 19.7847C8.89919 20.5336 8.78282 21.8641 9.53163 22.7565C10.2804 23.6489 11.6109 23.7653 12.5034 23.0165C11.6109 23.7653 11.4946 25.0958 12.2434 25.9883C12.9922 26.8807 14.3227 26.9971 15.2151 26.2482L15.6938 25.8466C14.8015 26.5954 14.6851 27.9259 15.4339 28.8183C16.1828 29.7107 17.5133 29.8271 18.4057 29.0783L19.3632 28.2748C18.4708 29.0236 18.3544 30.3541 19.1033 31.2466C19.8521 32.139 21.1826 32.2554 22.075 31.5066L28.4434 26.1628H31.0625C31.5803 26.1628 32 25.7431 32 25.2253V15.2253C32 14.7074 31.5803 14.2878 31.0625 14.2878Z" fill="white"/>
</svg>
