<svg width="65" height="65" viewBox="0 0 65 65" fill="none" xmlns="http://www.w3.org/2000/svg">
<path d="M6.83995 19.5198V22.9206C6.83995 23.2078 6.95404 23.4832 7.15705 23.6862L8.67015 25.1993C9.66855 26.1975 11.2195 24.6863 10.2014 23.6682L9.00539 22.4724V19.0716C9.00539 18.7844 8.8913 18.5089 8.68829 18.3059L2.52762 12.1453C3.41505 10.4423 4.52564 8.84582 5.84615 7.39485L14.9908 16.5395C13.2924 19.408 15.3669 23.0708 18.7224 23.0708C21.116 23.0708 23.0532 21.134 23.0532 18.74C23.0532 15.3597 19.3677 13.3238 16.522 15.0082L7.37738 5.86361C8.82836 4.5431 10.4246 3.43251 12.1278 2.54522L18.2883 8.70575C18.4915 8.90876 18.7668 9.02285 19.054 9.02285H22.4549L23.6509 10.2187C24.6551 11.2232 26.1964 9.70198 25.182 8.68748L23.6689 7.17451C23.4658 6.9715 23.1905 6.85741 22.9033 6.85741H19.5023L14.2302 1.58526C21.8647 -1.43052 31.0292 -0.147227 37.6335 5.86334L30.5613 12.9355C29.5493 13.9476 31.0787 15.4803 32.0926 14.4666L33.9701 12.5889L35.2963 15.2448L30.8276 19.7136C29.8156 20.7255 31.3452 22.2587 32.3588 21.2447L37.3789 16.2244C37.7084 15.895 37.7901 15.3919 37.582 14.9752L35.5843 10.9746L39.1643 7.39458C45.1637 13.9881 46.4616 23.1545 43.4426 30.7975L40.0845 27.4395V24.0385C40.0845 23.7513 39.9704 23.4759 39.7674 23.2729L38.2543 21.7598C37.2423 20.7477 35.7094 22.2773 36.7232 23.2909L37.9191 24.4868V27.8877C37.9191 28.1749 38.0332 28.4503 38.2362 28.6533L42.4826 32.8997C41.5953 34.6031 40.4847 36.1992 39.1642 37.6503L31.9337 30.4198C32.8918 28.8015 32.7243 26.6169 31.2643 25.157C29.572 23.4645 26.8323 23.4644 25.1396 25.157C23.451 26.8456 23.451 29.5933 25.1396 31.2818C26.5998 32.7419 28.7846 32.9087 30.4025 31.951L37.6331 39.1815C36.1821 40.5025 34.5861 41.6129 32.8828 42.5002L28.6361 38.2535C28.433 38.0505 28.1577 37.9364 27.8705 37.9364H24.4697L23.2737 36.7406C22.2614 35.7288 20.7289 37.2581 21.7426 38.2718L23.2557 39.7848C23.4589 39.9878 23.7341 40.1018 24.0213 40.1018H27.4221L30.7805 43.4602C23.1488 46.474 13.9818 45.1939 7.37738 39.1817L10.9574 35.6017L14.958 37.5993C15.3756 37.8078 15.8789 37.7247 16.2074 37.3963L21.2275 32.376C22.2397 31.3638 20.7098 29.8312 19.6963 30.8449L15.2276 35.3137L12.5717 33.9875L14.4494 32.1098C15.4615 31.0977 13.932 29.565 12.9182 30.5787L5.84629 37.6506C-0.170509 31.0414 -1.44243 21.8658 1.56752 14.2474L6.83995 19.5198Z" fill="white"/>
<path d="M20.2534 17.2084C21.0995 18.0545 21.1 19.4241 20.2535 20.2707C19.4075 21.1167 18.0376 21.1172 17.1912 20.2707C16.3449 19.4243 16.3448 18.0552 17.1909 17.2086C18.0367 16.3626 19.4067 16.3617 20.2534 17.2084Z" fill="white"/>
<path d="M26.6712 29.7508C25.3155 28.3951 26.2786 26.0543 28.2023 26.0543C30.1421 26.0543 31.083 28.4008 29.7338 29.7505C28.8879 30.5967 27.5179 30.5975 26.6712 29.7508Z" fill="white"/>
<path d="M34.1081 44.3054L53.2843 63.4816C54.5534 64.749 56.3407 65.2378 58.028 64.8581C60.5647 64.2871 60.9631 64.2576 61.781 63.8065L42.7441 44.7682C41.7297 43.7555 43.263 42.2256 44.2748 43.2375L63.4132 62.3759C63.8368 61.8102 64.1453 61.1525 64.3037 60.4419L64.841 58.0451C66.0283 52.7408 60.1772 51.7164 60.1637 51.7071C57.4426 50.9799 58.5607 47.4626 54.6716 46.3382C52.26 45.6401 53.4599 42.2136 49.5584 41.1696C46.9262 40.4639 48.3776 38.2158 46.2467 36.0848L44.287 34.1251C42.0402 38.3399 38.4778 41.9717 34.1081 44.3054Z" fill="white"/>
</svg>
