<svg width="95" height="95" viewBox="0 0 95 95" fill="none" xmlns="http://www.w3.org/2000/svg">
<path d="M20.5716 42.3867C18.5027 43.4284 16.1695 44.0188 13.6997 44.0188C10.6137 44.0188 7.7399 43.0994 5.33169 41.5248C2.09167 44.0327 0 47.9557 0 52.3604V56.2207H27.3992V52.3604C27.3992 51.593 27.3325 50.841 27.2106 50.1075C24.6048 47.9129 22.3573 45.3061 20.5716 42.3867Z" fill="#F3F0F0"/>
<path d="M13.6995 38.4524C15.2831 38.4524 16.7773 38.0733 18.1001 37.4044C16.7174 33.8593 15.957 30.0051 15.957 25.9766C15.957 23.7107 16.1992 21.5008 16.6554 19.369C15.7229 19.0733 14.73 18.9126 13.6995 18.9126C8.30377 18.9126 3.92969 23.2867 3.92969 28.6824C3.92969 34.0783 8.30377 38.4524 13.6995 38.4524Z" fill="#F3F0F0"/>
<path d="M89.6685 41.5248C87.2603 43.0994 84.3863 44.0188 81.3005 44.0188C78.8305 44.0188 76.4972 43.4284 74.4284 42.3867C72.6427 45.3061 70.3954 47.9128 67.7893 50.1073C67.6674 50.8408 67.6008 51.5928 67.6008 52.3604V56.2207H95V52.3604C95 47.9557 92.9083 44.0327 89.6685 41.5248Z" fill="#F3F0F0"/>
<path d="M91.0702 28.6826C91.0702 23.2869 86.6962 18.9128 81.3005 18.9128C80.2699 18.9128 79.2771 19.0735 78.3445 19.3692C78.8008 21.5008 79.0429 23.7107 79.0429 25.9766C79.0429 30.0051 78.2825 33.8591 76.8997 37.4044C78.2226 38.0733 79.7168 38.4524 81.3005 38.4524C86.6962 38.4524 91.0702 34.0783 91.0702 28.6826Z" fill="#F3F0F0"/>
<path d="M57 69.0852H38V85.5C38 90.7467 42.2533 95 47.5 95C52.7467 95 57 90.7467 57 85.5V69.0852Z" fill="#F3F0F0"/>
<path d="M34.8533 54.8701V63.519H60.1468V54.8699C56.273 56.5721 51.9954 57.5195 47.5 57.5195C43.0045 57.5195 38.7271 56.5723 34.8533 54.8701Z" fill="#F3F0F0"/>
<path d="M73.4766 25.9766C73.4766 11.6531 61.8235 0 47.5 0C33.1765 0 21.5234 11.6531 21.5234 25.9766C21.5234 34.0551 25.2307 41.2836 31.0327 46.0516C31.7014 40.8563 34.7813 36.4062 39.1098 33.8608C36.6557 31.5962 35.1149 28.3558 35.1149 24.761C35.1149 17.932 40.6708 12.3762 47.4998 12.3762C54.3291 12.3762 59.8849 17.932 59.8849 24.761C59.8849 28.3556 58.3443 31.5962 55.8901 33.8608C60.2187 36.4063 63.2984 40.8563 63.9673 46.0516C69.7695 41.2834 73.4766 34.0549 73.4766 25.9766Z" fill="#F3F0F0"/>
<path d="M54.3188 24.761C54.3188 21.0013 51.26 17.9426 47.5001 17.9426C43.7404 17.9426 40.6816 21.0013 40.6816 24.761C40.6816 28.5208 43.7404 31.5797 47.5001 31.5797C51.26 31.5795 54.3188 28.5208 54.3188 24.761Z" fill="#F3F0F0"/>
<path d="M36.4626 49.488C39.8144 51.0679 43.5554 51.9531 47.4999 51.9531C51.4444 51.9531 55.1854 51.0679 58.5373 49.488V48.1834C58.5373 42.0973 53.5858 37.1459 47.4999 37.1459C41.414 37.1459 36.4626 42.0973 36.4626 48.1834V49.488Z" fill="#F3F0F0"/>
</svg>
