<svg width="96" height="96" viewBox="0 0 96 96" fill="none" xmlns="http://www.w3.org/2000/svg">
<path d="M90.8048 80.1965L77.694 67.0853L72.8356 71.9429L70.7145 69.8218L75.573 64.9642L71.3586 60.7496C68.5396 64.93 64.9327 68.5368 60.7524 71.356L64.9664 75.5701L68.9772 71.5598L71.0983 73.6809L67.0874 77.6912L80.1993 90.8035C81.6159 92.22 83.4982 93 85.5021 93C87.506 93 89.3883 92.22 90.8048 90.8035C93.7286 87.8789 93.7286 83.1211 90.8048 80.1965Z" fill="white"/>
<path d="M50.3987 63.442C53.0669 62.1926 55.4977 60.5286 57.6057 58.5186V43.634H50.3987V63.442Z" fill="white"/>
<path d="M20.3987 58.5186C22.5067 60.5286 24.9375 62.1926 27.6057 63.442V55.634H20.3987V58.5186Z" fill="white"/>
<path d="M35.3987 65.7307C36.5806 65.8895 37.7775 66 39.0022 66C40.2269 66 41.4238 65.8895 42.6057 65.7307V49.634H35.3987L35.3987 65.7307Z" fill="white"/>
<path d="M66.0022 39C66.0022 24.1121 53.8894 12 39.0022 12C24.115 12 12.0022 24.1121 12.0022 39C12.0022 41.7623 12.423 44.4274 13.1973 46.939L26.1599 34.5498L34.6999 39.7537L43.4301 31.166H40.5066V28.166H48.5149V36.1736H45.5149V33.3234L35.1365 43.533L26.5671 38.3115L14.359 49.9798C15.1803 51.8154 16.2069 53.534 17.3987 55.1264V52.634H30.6057V64.646C31.1931 64.8388 31.7944 64.9965 32.3987 65.1492V46.634H45.6057V65.1492C46.21 64.9965 46.8113 64.8388 47.3987 64.646V40.634H60.6057V55.1264C63.9783 50.6202 66.0022 45.0488 66.0022 39ZM43.3015 18.4424C41.8967 18.1487 40.4495 18 39.0022 18V15C40.656 15 42.3083 15.1699 43.9138 15.5054L43.3015 18.4424ZM54.2571 24.583C52.0261 22.2246 49.2488 20.3906 46.2224 19.2788L47.2566 16.4634C50.7151 17.7334 53.8894 19.8281 56.4368 22.522L54.2571 24.583Z" fill="white"/>
<path d="M75.0022 39C75.0022 19.1499 58.8523 3 39.0022 3C19.1521 3 3.0022 19.1499 3.0022 39C3.0022 58.8501 19.1521 75 39.0022 75C58.8523 75 75.0022 58.8501 75.0022 39ZM39.0022 69C22.4597 69 9.0022 55.5417 9.0022 39C9.0022 22.4583 22.4597 9 39.0022 9C55.5447 9 69.0022 22.4583 69.0022 39C69.0022 55.5417 55.5447 69 39.0022 69Z" fill="white"/>
</svg>
