<svg width="87" height="79" viewBox="0 0 87 79" fill="none" xmlns="http://www.w3.org/2000/svg">
<path d="M36.5816 51.1986L34.3179 52.3535C34.2777 52.3747 34.2479 52.4098 34.235 52.4512C34.222 52.4927 34.2269 52.5372 34.2487 52.5753L37.9422 58.9375C38.0073 59.019 38.1027 59.0747 38.2096 59.0935C38.3164 59.1123 38.4269 59.0928 38.5192 59.039L40.2895 58.1382C40.3872 58.0954 40.4642 58.02 40.5054 57.9267C40.5466 57.8334 40.549 57.729 40.5122 57.6341L36.8187 51.2682C36.7964 51.2302 36.7593 51.2018 36.7152 51.1889C36.6711 51.1759 36.6233 51.1794 36.5819 51.1986H36.5816ZM30.965 36.2398L24.3473 39.6121C23.5193 40.0053 22.8917 40.6903 22.6023 41.5167C22.313 42.343 22.3855 43.2432 22.804 44.0195L23.9775 46.0431C24.4218 46.803 25.1689 47.3674 26.0558 47.6132C26.9427 47.859 27.8973 47.7661 28.7114 47.3549L35.4282 43.9317C35.4483 43.9221 35.4662 43.9088 35.4807 43.8925C35.4952 43.8762 35.506 43.8574 35.5125 43.8371C35.5189 43.8168 35.5209 43.7955 35.5183 43.7744C35.5158 43.7534 35.5086 43.733 35.4974 43.7146L31.2022 36.3096C31.1916 36.2904 31.177 36.2734 31.1594 36.2595C31.1417 36.2456 31.1213 36.2351 31.0993 36.2287C31.0773 36.2222 31.0542 36.2199 31.0313 36.2218C31.0083 36.2238 30.986 36.23 30.9656 36.24L30.965 36.2398ZM46.543 20.7721C45.9561 21.0725 45.4975 21.2712 45.2813 21.964C45.2084 22.1884 45.1874 22.4248 45.2197 22.6574C45.252 22.89 45.3369 23.1135 45.4687 23.3129L54.9514 39.6484C55.1763 40.0295 55.5521 40.3124 55.9978 40.436C56.4434 40.5596 56.9231 40.514 57.3331 40.309C57.6044 40.1699 57.9397 40.0688 57.8263 39.8703L46.7755 20.8361C46.7649 20.8175 46.7504 20.8011 46.733 20.7878C46.7156 20.7745 46.6955 20.7646 46.674 20.7586C46.6524 20.7526 46.6298 20.7506 46.6075 20.7528C46.5851 20.755 46.5635 20.7613 46.5437 20.7714L46.543 20.7721ZM52.4555 40.1018L43.6485 24.9346C43.6357 24.9121 43.6175 24.8927 43.5953 24.8781C43.573 24.8634 43.5474 24.8539 43.5205 24.8503C43.4936 24.8467 43.4661 24.8491 43.4404 24.8573C43.4146 24.8655 43.3913 24.8793 43.3724 24.8976L33.1836 34.7284C33.1574 34.7528 33.1408 34.7848 33.1363 34.8191C33.1318 34.8535 33.1398 34.8883 33.159 34.9179L37.8037 42.9244C37.8206 42.9558 37.8483 42.9811 37.8822 42.9962C37.9161 43.0113 37.9545 43.0153 37.9911 43.0077L52.336 40.342C52.3626 40.3363 52.3874 40.325 52.4086 40.3089C52.4298 40.2928 52.4468 40.2724 52.4582 40.2492C52.4696 40.226 52.4752 40.2006 52.4746 40.1751C52.4739 40.1495 52.467 40.1244 52.4543 40.1018H52.4555ZM30.2401 49.3498L31.2757 51.1331C31.2863 51.1516 31.3007 51.168 31.3182 51.1813C31.3356 51.1946 31.3556 51.2046 31.3772 51.2106C31.3987 51.2166 31.4213 51.2185 31.4437 51.2163C31.466 51.2141 31.4877 51.2078 31.5074 51.1978L37.0738 48.3612C37.114 48.3401 37.1437 48.305 37.1566 48.2635C37.1695 48.2221 37.1646 48.1775 37.1428 48.1394L36.1073 46.3608C36.0855 46.3224 36.0485 46.2936 36.0041 46.2806C35.9598 46.2675 35.9118 46.2714 35.8705 46.2913L30.3082 49.1278C30.268 49.149 30.2383 49.184 30.2254 49.2254C30.2125 49.2669 30.2175 49.3114 30.2392 49.3494L30.2401 49.3498ZM59.8321 34.5344C59.5103 34.5571 59.1922 34.4591 58.9476 34.262C58.7029 34.0649 58.5519 33.7848 58.5278 33.4834C58.5036 33.182 58.6082 32.8839 58.8186 32.6547C59.029 32.4256 59.3279 32.2841 59.6497 32.2614L68.3039 31.6564C68.4636 31.6448 68.6241 31.663 68.7762 31.7097C68.9284 31.7564 69.0692 31.8309 69.1906 31.9287C69.3119 32.0265 69.4115 32.1458 69.4835 32.2798C69.5556 32.4138 69.5986 32.5597 69.6103 32.7093C69.622 32.8589 69.602 33.0092 69.5516 33.1516C69.5011 33.2939 69.4211 33.4256 69.3162 33.5389C69.2113 33.6522 69.0836 33.745 68.9403 33.812C68.797 33.879 68.6411 33.9188 68.4813 33.9292L59.8321 34.5344ZM12.5421 59.772C12.5401 59.621 12.5701 59.4711 12.6305 59.331C12.6908 59.1909 12.7802 59.0634 12.8935 58.956C13.0068 58.8485 13.1417 58.7632 13.2905 58.705C13.4393 58.6467 13.5989 58.6167 13.7601 58.6167C13.9213 58.6167 14.081 58.6467 14.2297 58.705C14.3785 58.7632 14.5135 58.8485 14.6268 58.956C14.7401 59.0634 14.8295 59.1909 14.8898 59.331C14.9501 59.4711 14.9801 59.621 14.9781 59.772C14.9781 60.0399 14.9238 60.2761 15.0915 60.3356C15.8138 60.5902 16.4362 61.045 16.8757 61.6392C17.3153 62.2335 17.5513 62.9391 17.5522 63.6621C17.5542 63.8131 17.5242 63.963 17.4639 64.1031C17.4036 64.2432 17.3141 64.3707 17.2008 64.4781C17.0875 64.5856 16.9526 64.6709 16.8038 64.7292C16.6551 64.7874 16.4954 64.8174 16.3342 64.8174C16.173 64.8174 16.0134 64.7874 15.8646 64.7292C15.7158 64.6709 15.5809 64.5856 15.4676 64.4781C15.3543 64.3707 15.2649 64.2432 15.2046 64.1031C15.1442 63.963 15.1142 63.8131 15.1162 63.6621C15.115 63.411 15.0346 63.1659 14.8851 62.9575C14.7356 62.7492 14.5236 62.5869 14.2759 62.4911C14.0281 62.3953 13.7557 62.3702 13.4928 62.4191C13.23 62.468 12.9884 62.5887 12.7985 62.7658C12.6716 62.8828 12.5709 63.0223 12.5023 63.1762C12.4337 63.3301 12.3986 63.4953 12.399 63.6621C12.399 64.6554 12.5618 64.9373 13.76 64.9373C18.2874 64.9373 18.8097 70.5132 15.0915 71.816C14.9245 71.876 14.9781 72.1115 14.9781 72.3796C14.9801 72.5306 14.9501 72.6805 14.8898 72.8206C14.8295 72.9607 14.7401 73.0882 14.6268 73.1956C14.5135 73.3031 14.3785 73.3884 14.2297 73.4466C14.081 73.5049 13.9213 73.5349 13.7601 73.5349C13.5989 73.5349 13.4393 73.5049 13.2905 73.4466C13.1417 73.3884 13.0068 73.3031 12.8935 73.1956C12.7802 73.0882 12.6908 72.9607 12.6305 72.8206C12.5701 72.6805 12.5401 72.5306 12.5421 72.3796C12.5421 72.1117 12.5915 71.8755 12.4287 71.816C11.7055 71.5627 11.0822 71.1083 10.6424 70.5137C10.2026 69.9192 9.96726 69.2129 9.968 68.4895C9.96518 68.3383 9.99454 68.1881 10.0543 68.0476C10.1142 67.9072 10.2032 67.7793 10.3164 67.6714C10.4295 67.5636 10.5644 67.4779 10.7133 67.4194C10.8621 67.361 11.0219 67.3308 11.1833 67.3308C11.3447 67.3308 11.5045 67.361 11.6534 67.4194C11.8022 67.4779 11.9372 67.5636 12.0503 67.6714C12.1634 67.7793 12.2525 67.9072 12.3123 68.0476C12.3721 68.1881 12.4015 68.3383 12.3987 68.4895C12.3998 68.7406 12.48 68.9858 12.6293 69.1943C12.7786 69.4028 12.9903 69.5654 13.2379 69.6616C13.4855 69.7578 13.7578 69.7834 14.0209 69.7351C14.2839 69.6869 14.5258 69.5669 14.7163 69.3903C15.2884 68.8544 15.1947 67.9165 14.7755 67.5239C14.5735 67.3346 14.2374 67.2145 13.7597 67.2145C11.1117 67.2145 9.96763 65.8285 9.96763 63.6618C9.96762 62.9386 10.2032 62.2326 10.6429 61.6383C11.0827 61.0439 11.7055 60.5894 12.4284 60.3356C12.5911 60.2756 12.5417 60.0401 12.5417 59.772H12.5421ZM82.841 3.9285C80.9426 2.15 78.5238 0.938828 75.8907 0.448148C73.2575 -0.0425332 70.5281 0.209315 68.0477 1.17185C65.5673 2.13438 63.4473 3.76436 61.9557 5.85567C60.4642 7.94698 59.668 10.4057 59.668 12.9209C59.668 15.4361 60.4642 17.8948 61.9557 19.9861C63.4473 22.0774 65.5673 23.7074 68.0477 24.6699C70.5281 25.6325 73.2575 25.8843 75.8907 25.3936C78.5238 24.903 80.9426 23.6918 82.841 21.9133C85.3845 19.5273 86.8131 16.293 86.8131 12.9209C86.8131 9.54878 85.3845 6.31453 82.841 3.9285ZM19.9634 60.2617C18.736 59.1118 17.1722 58.3288 15.4698 58.0115C13.7673 57.6943 12.0027 57.8571 10.399 58.4794C8.79538 59.1017 7.42471 60.1556 6.46036 61.5077C5.496 62.8598 4.98128 64.4495 4.98128 66.0756C4.98128 67.7018 5.496 69.2914 6.46036 70.6435C7.42471 71.9957 8.79538 73.0495 10.399 73.6718C12.0027 74.2941 13.7673 74.457 15.4698 74.1397C17.1722 73.8225 18.736 73.0394 19.9634 71.8896C20.7784 71.1261 21.4249 70.2197 21.8659 69.2221C22.307 68.2246 22.534 67.1554 22.534 66.0756C22.534 64.9959 22.307 63.9267 21.8659 62.9291C21.4249 61.9316 20.7784 61.0252 19.9634 60.2617ZM13.76 55.5727C15.9772 55.5731 18.1444 56.1894 19.9876 57.3437C21.8309 58.4979 23.2675 60.1383 24.1158 62.0573C24.964 63.9764 25.1858 66.088 24.7532 68.1252C24.3206 70.1623 23.2529 72.0336 21.6852 73.5024C20.1175 74.9711 18.1201 75.9714 15.9456 76.3768C13.7711 76.7822 11.5171 76.5744 9.46868 75.7798C7.42021 74.9852 5.66922 73.6394 4.4371 71.9126C3.20498 70.1857 2.54705 68.1554 2.5465 66.0783C2.54628 64.6987 2.83618 63.3325 3.39963 62.0579C3.96309 60.7832 4.78906 59.625 5.83038 58.6495C6.87169 57.6739 8.10795 56.9001 9.46854 56.3723C10.8291 55.8444 12.2874 55.5728 13.76 55.573V55.5727ZM79.7097 60.0215C78.4315 58.8235 76.8027 58.0076 75.0295 57.6769C73.2563 57.3463 71.4182 57.5157 69.7478 58.1637C68.0773 58.8118 66.6495 59.9094 65.645 61.3177C64.6404 62.726 64.1042 64.3818 64.1042 66.0756C64.1042 67.7694 64.6404 69.4252 65.645 70.8336C66.6495 72.2419 68.0773 73.3395 69.7478 73.9875C71.4182 74.6356 73.2563 74.805 75.0295 74.4743C76.8027 74.1436 78.4315 73.3277 79.7097 72.1298C81.4227 70.5237 82.3849 68.3461 82.3849 66.0756C82.3849 63.8052 81.4227 61.6276 79.7097 60.0215ZM73.2449 55.2314C75.5342 55.2318 77.7721 55.8681 79.6754 57.0599C81.5788 58.2517 83.0622 59.9455 83.9381 61.9271C84.814 63.9087 85.0431 66.0891 84.5964 68.1926C84.1497 70.2962 83.0472 72.2284 81.4284 73.7449C79.8095 75.2615 77.7471 76.2944 75.5017 76.7129C73.2564 77.1314 70.929 76.9168 68.8138 76.0962C66.6986 75.2756 64.8907 73.8859 63.6185 72.1027C62.3464 70.3196 61.6672 68.2231 61.6667 66.0783C61.6665 64.6538 61.9657 63.2432 62.5475 61.9271C63.1292 60.6109 63.9821 59.4151 65.0572 58.4078C66.1324 57.4005 67.4089 56.6016 68.8138 56.0566C70.2186 55.5115 71.7243 55.2312 73.2449 55.2314ZM72.0269 66.0783V59.869C72.0309 59.5688 72.161 59.2822 72.389 59.0712C72.617 58.8602 72.9245 58.7419 73.245 58.7419C73.5654 58.7419 73.873 58.8602 74.101 59.0712C74.329 59.2822 74.459 59.5688 74.463 59.869V64.771C74.4625 64.8144 74.4804 64.8562 74.5127 64.8874C74.545 64.9185 74.5892 64.9365 74.6355 64.9373H76.4995C76.6609 64.9347 76.8213 64.9622 76.9712 65.0182C77.1211 65.0742 77.2576 65.1577 77.3727 65.2637C77.4879 65.3697 77.5793 65.4961 77.6417 65.6355C77.7042 65.775 77.7363 65.9247 77.7363 66.0759C77.7363 66.2271 77.7042 66.3768 77.6417 66.5163C77.5793 66.6557 77.4879 66.7821 77.3727 66.8881C77.2576 66.9941 77.1211 67.0775 76.9712 67.1336C76.8213 67.1896 76.6609 67.2171 76.4995 67.2145H73.1514C72.8975 67.1971 72.656 67.1051 72.4612 66.9516C72.2664 66.7982 72.1283 66.591 72.0665 66.3597L72.0269 66.0783ZM82.841 57.0838C80.9426 55.3052 78.5238 54.094 75.8907 53.6033C73.2575 53.1126 70.5281 53.3645 68.0477 54.327C65.5673 55.2895 63.4472 56.9195 61.9557 59.0108C60.4641 61.1021 59.6679 63.5608 59.6679 66.0761C59.6679 68.5913 60.4641 71.05 61.9557 73.1413C63.4472 75.2326 65.5673 76.8626 68.0477 77.8251C70.5281 78.7877 73.2575 79.0395 75.8907 78.5488C78.5238 78.0581 80.9426 76.8469 82.841 75.0684C85.3867 72.6834 86.8168 69.4488 86.8168 66.0761C86.8168 62.7033 85.3867 59.4687 82.841 57.0838ZM15.8409 6.37253V7.48086C15.8409 7.6307 15.8094 7.77907 15.7482 7.9175C15.687 8.05593 15.5973 8.18172 15.4842 8.28767C15.3711 8.39362 15.2369 8.47767 15.0891 8.53501C14.9413 8.59235 14.7829 8.62186 14.623 8.62186C14.4631 8.62186 14.3047 8.59235 14.1569 8.53501C14.0092 8.47767 13.8749 8.39362 13.7618 8.28767C13.6487 8.18172 13.559 8.05593 13.4978 7.9175C13.4366 7.77907 13.4051 7.6307 13.4051 7.48086V6.37253C13.4055 6.34831 13.4001 6.32431 13.3893 6.30228C13.3786 6.28026 13.3627 6.26078 13.3428 6.24526C13.323 6.22975 13.2996 6.21859 13.2746 6.21261C13.2495 6.20662 13.2234 6.20597 13.198 6.21069C11.7814 6.47597 10.4804 7.1282 9.45888 8.08516C8.43737 9.04211 7.74113 10.261 7.45793 11.5881C7.45288 11.6118 7.45358 11.6363 7.45997 11.6598C7.46635 11.6833 7.47826 11.7051 7.49483 11.7237C7.51139 11.7423 7.53219 11.7572 7.55569 11.7673C7.5792 11.7774 7.60482 11.7824 7.63067 11.7821H8.81409C9.13452 11.7858 9.44049 11.9076 9.66569 12.1212C9.89089 12.3348 10.0172 12.6229 10.0172 12.9232C10.0172 13.2234 9.89089 13.5115 9.66569 13.7251C9.44049 13.9387 9.13452 14.0605 8.81409 14.0642H7.63067C7.60481 14.0639 7.57919 14.0689 7.55568 14.0791C7.53218 14.0892 7.51138 14.1041 7.49482 14.1227C7.47826 14.1413 7.46636 14.1632 7.45997 14.1866C7.45359 14.2101 7.45289 14.2346 7.45793 14.2584C7.74114 15.5855 8.43739 16.8043 9.4589 17.7612C10.4804 18.7182 11.7814 19.3704 13.198 19.6356C13.2234 19.6404 13.2495 19.6397 13.2746 19.6338C13.2996 19.6278 13.3229 19.6167 13.3428 19.6012C13.3627 19.5857 13.3786 19.5662 13.3893 19.5442C13.4001 19.5222 13.4055 19.4982 13.4051 19.474V18.3653C13.4051 18.0627 13.5334 17.7724 13.7618 17.5585C13.9902 17.3445 14.3 17.2243 14.623 17.2243C14.946 17.2243 15.2558 17.3445 15.4842 17.5585C15.7126 17.7724 15.8409 18.0627 15.8409 18.3653V19.474C15.8405 19.4982 15.8459 19.5222 15.8567 19.5442C15.8675 19.5662 15.8835 19.5857 15.9033 19.6012C15.9232 19.6167 15.9465 19.6278 15.9716 19.6338C15.9967 19.6397 16.0228 19.6404 16.0482 19.6356C17.4647 19.3704 18.7658 18.7182 19.7872 17.7613C20.8087 16.8043 21.5049 15.5855 21.7881 14.2584C21.7931 14.2347 21.7924 14.2102 21.786 14.1867C21.7797 14.1632 21.7678 14.1414 21.7512 14.1228C21.7347 14.1042 21.7139 14.0892 21.6905 14.0791C21.667 14.069 21.6414 14.0639 21.6155 14.0642H20.4319C20.1115 14.0605 19.8055 13.9387 19.5803 13.7251C19.3551 13.5115 19.2288 13.2234 19.2288 12.9232C19.2288 12.6229 19.3551 12.3348 19.5803 12.1212C19.8055 11.9076 20.1115 11.7858 20.4319 11.7821H21.6155C21.6414 11.7824 21.667 11.7774 21.6904 11.7673C21.7139 11.7572 21.7347 11.7423 21.7512 11.7237C21.7678 11.7051 21.7797 11.6832 21.7861 11.6598C21.7924 11.6363 21.7931 11.6118 21.7881 11.5881C21.5049 10.261 20.8087 9.04211 19.7873 8.08515C18.7658 7.12819 17.4648 6.47596 16.0482 6.21069C16.0228 6.20597 15.9966 6.20663 15.9716 6.21261C15.9465 6.21859 15.9232 6.22975 15.9033 6.24526C15.8835 6.26078 15.8675 6.28026 15.8567 6.30228C15.846 6.3243 15.8405 6.3483 15.8409 6.37253ZM13.4043 2.39951C13.4043 2.0969 13.5326 1.80668 13.7611 1.5927C13.9895 1.37872 14.2992 1.2585 14.6223 1.2585C14.9453 1.2585 15.2551 1.37872 15.4835 1.5927C15.7119 1.80668 15.8402 2.0969 15.8402 2.39951V3.72617C15.8395 3.76547 15.8542 3.80364 15.8816 3.83344C15.909 3.86324 15.947 3.8826 15.9886 3.88783C18.0791 4.1664 20.0166 5.07326 21.5097 6.47204C23.0028 7.87082 23.9708 9.68592 24.2681 11.6444C24.2737 11.6833 24.2943 11.719 24.3262 11.7447C24.358 11.7703 24.3987 11.7841 24.4407 11.7834H25.8558C26.017 11.7816 26.1771 11.8097 26.3266 11.8662C26.4761 11.9227 26.6122 12.0065 26.7269 12.1126C26.8416 12.2188 26.9326 12.3452 26.9948 12.4846C27.057 12.624 27.089 12.7735 27.089 12.9245C27.089 13.0756 27.057 13.2251 26.9948 13.3645C26.9326 13.5039 26.8416 13.6303 26.7269 13.7364C26.6122 13.8426 26.4761 13.9263 26.3266 13.9829C26.1771 14.0394 26.017 14.0675 25.8558 14.0656H24.4407C24.3987 14.065 24.358 14.0788 24.3262 14.1045C24.2944 14.1301 24.2737 14.1658 24.2681 14.2047C23.9708 16.1632 23.0028 17.9782 21.5097 19.377C20.0166 20.7758 18.0791 21.6826 15.9886 21.9611C15.947 21.9664 15.909 21.9858 15.8816 22.0156C15.8543 22.0454 15.8395 22.0836 15.8402 22.1229V23.4487C15.8402 23.7513 15.7119 24.0415 15.4835 24.2555C15.2551 24.4695 14.9453 24.5897 14.6223 24.5897C14.2992 24.5897 13.9895 24.4695 13.7611 24.2555C13.5326 24.0415 13.4043 23.7513 13.4043 23.4487V22.1229C13.405 22.0836 13.3902 22.0454 13.3629 22.0156C13.3355 21.9858 13.2975 21.9664 13.2559 21.9611C11.1654 21.6826 9.22795 20.7757 7.73487 19.377C6.24178 17.9782 5.27378 16.1631 4.97642 14.2047C4.97084 14.1658 4.95021 14.1301 4.91844 14.1045C4.88667 14.0789 4.84597 14.065 4.80405 14.0656H3.38981C3.06937 14.0619 2.7634 13.9401 2.53821 13.7265C2.31301 13.5129 2.18673 13.2248 2.18673 12.9245C2.18673 12.6243 2.31301 12.3362 2.53821 12.1226C2.7634 11.909 3.06937 11.7872 3.38981 11.7834H4.80516C4.84709 11.7841 4.88782 11.7703 4.91959 11.7446C4.95137 11.719 4.97199 11.6833 4.97753 11.6444C5.27473 9.68577 6.24265 7.8705 7.73574 6.47155C9.22884 5.0726 11.1664 4.1656 13.257 3.88696C13.2986 3.88173 13.3367 3.86237 13.364 3.83257C13.3914 3.80277 13.4061 3.7646 13.4054 3.7253L13.4043 2.39951ZM68.8554 14.4806H66.1883C66.142 14.4814 66.0978 14.4993 66.0655 14.5305C66.0332 14.5616 66.0153 14.6035 66.0158 14.6469V18.6615C66.0163 18.7042 66.0347 18.745 66.0669 18.7752C66.0992 18.8055 66.1427 18.8226 66.1883 18.8231H68.8561C68.9025 18.8236 68.9472 18.8069 68.9805 18.7766C69.0137 18.7463 69.0329 18.7049 69.0337 18.6615V14.6464C69.0338 14.6245 69.0293 14.6029 69.0204 14.5826C69.0115 14.5624 68.9984 14.544 68.9819 14.5286C68.9654 14.5131 68.9458 14.5008 68.9242 14.4925C68.9026 14.4842 68.8795 14.48 68.8561 14.48L68.8554 14.4806ZM74.3094 10.891H71.6423C71.5959 10.8906 71.5512 10.9073 71.518 10.9376C71.4847 10.9679 71.4656 11.0092 71.4647 11.0527V18.6615C71.4656 18.7049 71.4847 18.7463 71.518 18.7766C71.5512 18.8069 71.5959 18.8236 71.6423 18.8231H74.3101C74.3557 18.8226 74.3993 18.8055 74.4315 18.7752C74.4638 18.745 74.4821 18.7042 74.4827 18.6615V11.0522C74.4821 11.0094 74.4638 10.9686 74.4315 10.9384C74.3993 10.9082 74.3557 10.891 74.3101 10.8905L74.3094 10.891ZM79.7633 7.02438H77.0913C77.0457 7.02488 77.0021 7.04207 76.9698 7.07228C76.9376 7.10249 76.9192 7.14332 76.9187 7.18604V18.6615C76.9192 18.7042 76.9376 18.745 76.9698 18.7752C77.0021 18.8055 77.0457 18.8226 77.0913 18.8231H79.7641C79.8096 18.8226 79.8532 18.8054 79.8854 18.7752C79.9176 18.745 79.936 18.7042 79.9364 18.6615V7.18535C79.936 7.14264 79.9176 7.10181 79.8854 7.0716C79.8532 7.04138 79.8096 7.02419 79.7641 7.02369L79.7633 7.02438ZM75.6998 4.74219H81.1538C81.4766 4.74284 81.786 4.86326 82.0143 5.0771C82.2425 5.29094 82.371 5.58079 82.3717 5.8832V19.9641C82.371 20.2666 82.2425 20.5564 82.0143 20.7703C81.786 20.9842 81.4766 21.1046 81.1538 21.1053H64.7979C64.6379 21.1054 64.4795 21.0759 64.3316 21.0186C64.1838 20.9613 64.0495 20.8772 63.9364 20.7712C63.8233 20.6652 63.7336 20.5394 63.6724 20.4009C63.6113 20.2624 63.5798 20.114 63.5799 19.9641V13.3389C63.5799 13.1892 63.6115 13.0411 63.6727 12.9029C63.734 12.7647 63.8238 12.6392 63.9369 12.5336C64.0501 12.4281 64.1844 12.3444 64.3321 12.2876C64.4799 12.2307 64.6381 12.2018 64.7979 12.2024H68.8561C68.8795 12.2025 68.9026 12.1982 68.9242 12.1899C68.9458 12.1816 68.9654 12.1693 68.9819 12.1539C68.9984 12.1384 69.0115 12.12 69.0204 12.0998C69.0293 12.0796 69.0338 12.0579 69.0337 12.036V9.74949C69.0333 9.44754 69.1608 9.15779 69.3883 8.94386C69.6157 8.72993 69.9245 8.60931 70.2468 8.60848H74.3103C74.3559 8.60794 74.3995 8.59071 74.4317 8.56047C74.464 8.53023 74.4823 8.48938 74.4828 8.44665V5.88268C74.4835 5.58026 74.6121 5.29042 74.8403 5.07658C75.0686 4.86273 75.378 4.74232 75.7008 4.74167L75.6998 4.74219ZM24.2191 3.9332C22.3212 2.15515 19.9031 0.944292 17.2706 0.453736C14.6381 -0.0368201 11.9094 0.214961 9.4297 1.17724C6.94995 2.13952 4.83047 3.76908 3.33928 5.85985C1.8481 7.95062 1.05218 10.4087 1.05218 12.9232C1.05218 15.4378 1.8481 17.8959 3.33928 19.9866C4.83047 22.0774 6.94995 23.707 9.4297 24.6692C11.9094 25.6315 14.6381 25.8833 17.2706 25.3927C19.9031 24.9022 22.3212 23.6913 24.2191 21.9133C25.4796 20.7328 26.4794 19.3313 27.1616 17.7888C27.8438 16.2463 28.1949 14.5929 28.1949 12.9232C28.1949 11.2536 27.8438 9.60023 27.1616 8.0577C26.4794 6.51516 25.4796 5.11364 24.2191 3.9332ZM23.3561 57.0834C21.4577 55.3049 19.039 54.0937 16.4058 53.603C13.7726 53.1123 11.0433 53.3641 8.56285 54.3266C6.08244 55.2892 3.9624 56.9191 2.47082 59.0105C0.979234 61.1018 0.183105 63.5605 0.183105 66.0757C0.183105 68.5909 0.979234 71.0496 2.47082 73.141C3.9624 75.2323 6.08244 76.8623 8.56285 77.8248C11.0433 78.7873 13.7726 79.0391 16.4058 78.5484C19.039 78.0577 21.4577 76.8465 23.3561 75.068C25.9018 72.6831 27.332 69.4485 27.332 66.0757C27.332 62.7029 25.9018 59.4683 23.3561 57.0834ZM13.76 51.077C16.4887 51.0784 19.1718 51.733 21.5547 52.9785C23.9376 54.224 25.9414 56.0192 27.3759 58.1938C28.8105 60.3684 29.6282 62.8503 29.7516 65.404C29.8751 67.9577 29.3 70.4987 28.0811 72.7858C28.0698 72.8059 28.0632 72.828 28.0616 72.8507C28.06 72.8733 28.0635 72.896 28.0719 72.9173C28.0803 72.9386 28.0933 72.958 28.1102 72.9743C28.1271 72.9906 28.1475 73.0034 28.17 73.0118C33.025 74.8407 38.2187 75.7504 43.4511 75.6886C48.6835 75.6267 53.8511 74.5945 58.6553 72.6515C58.6985 72.633 58.732 72.5993 58.7487 72.5578C58.7654 72.5162 58.7637 72.4701 58.7442 72.4296C57.3728 69.6813 56.9231 66.608 57.4546 63.6153C57.9861 60.6226 59.4738 57.8512 61.7213 55.667C63.9688 53.4827 66.8704 51.9883 70.0432 51.3809C73.216 50.7735 76.5108 51.0817 79.4928 52.2649C79.5144 52.2738 79.5377 52.2786 79.5613 52.2787C79.5849 52.2789 79.6083 52.2745 79.6301 52.2659C79.6518 52.2572 79.6714 52.2445 79.6876 52.2284C79.7039 52.2124 79.7164 52.1934 79.7245 52.1726C83.1239 43.9795 83.3126 34.9226 80.2571 26.6115C80.2495 26.5898 80.2372 26.5697 80.2208 26.5528C80.2044 26.5358 80.1843 26.5223 80.162 26.5132C80.1396 26.504 80.1154 26.4994 80.091 26.4996C80.0666 26.4998 80.0425 26.5049 80.0203 26.5145C77.5573 27.5908 74.8426 28.0626 72.1314 27.8856C69.4203 27.7087 66.8016 26.8887 64.5218 25.5028C64.3885 25.4196 64.3047 25.5305 64.1568 25.609L58.3623 28.561C58.2222 28.6323 58.0683 28.677 57.9097 28.6926C57.7511 28.7082 57.5907 28.6943 57.4378 28.6519C57.2849 28.6094 57.1423 28.5391 57.0184 28.4451C56.8945 28.351 56.7915 28.235 56.7154 28.1037C56.6393 27.9723 56.5916 27.8282 56.575 27.6796C56.5583 27.531 56.5731 27.3808 56.6184 27.2375C56.6638 27.0942 56.7388 26.9607 56.8392 26.8446C56.9396 26.7285 57.0634 26.632 57.2036 26.5608L62.1594 24.0383C62.4306 23.8993 62.0412 23.6364 61.9228 23.5255C60.5253 22.2159 59.3971 20.6765 58.5943 18.9843C58.5827 18.958 58.5639 18.9351 58.5398 18.9177C58.5158 18.9004 58.4873 18.8893 58.4572 18.8856C58.4271 18.8819 58.3965 18.8856 58.3685 18.8965C58.3404 18.9073 58.3159 18.9249 58.2974 18.9474L54.5842 23.5348C54.39 23.7749 54.1019 23.9329 53.7834 23.9741C53.4648 24.0152 53.1418 23.9362 52.8855 23.7542C52.6291 23.5723 52.4604 23.3024 52.4165 23.0039C52.3726 22.7055 52.457 22.4029 52.6512 22.1627L56.7243 17.1365C57.183 16.5629 57.7747 16.8222 57.6908 16.4944C56.6985 12.6922 57.3302 8.6774 59.4513 5.30522C59.4631 5.28538 59.4705 5.26347 59.4729 5.24086C59.4753 5.21825 59.4727 5.19542 59.4653 5.17378C59.4579 5.15214 59.4459 5.13215 59.4299 5.11506C59.4139 5.09796 59.3944 5.08411 59.3725 5.07438C54.4756 2.98477 49.1759 1.85101 43.7963 1.74217C38.4166 1.63333 33.0697 2.55169 28.0811 4.4413C28.0575 4.45131 28.0366 4.46592 28.0195 4.48415C28.0025 4.50238 27.9898 4.52381 27.9824 4.547C27.9749 4.5702 27.9728 4.59461 27.9762 4.61862C27.9797 4.64263 27.9885 4.66568 28.0022 4.68622C30.0034 7.539 30.9059 10.946 30.5608 14.3443C30.2156 17.7426 28.6434 20.9289 26.1038 23.3769C23.5643 25.8249 20.2093 27.3881 16.5932 27.8082C12.9771 28.2283 9.31624 27.4803 6.21532 25.6876C6.19322 25.6748 6.16836 25.6668 6.14255 25.6642C6.11673 25.6615 6.09061 25.6642 6.06607 25.6722C6.04152 25.6801 6.01917 25.6931 6.00064 25.7101C5.9821 25.7272 5.96784 25.7479 5.95889 25.7707C2.51906 34.4402 2.65802 44.0005 6.34854 52.579C6.35696 52.6 6.37007 52.6191 6.38701 52.635C6.40395 52.6508 6.42431 52.6631 6.44674 52.671C6.46916 52.6789 6.49313 52.6822 6.51703 52.6807C6.54093 52.6792 6.5642 52.6729 6.5853 52.6623C8.81255 51.6178 11.2693 51.075 13.76 51.077ZM38.9486 50.1762L42.6421 56.5421C42.8159 56.8511 42.923 57.1892 42.9571 57.537C42.9912 57.8848 42.9517 58.2355 42.8408 58.569C42.7299 58.9025 42.5499 59.2122 42.311 59.4803C42.0721 59.7485 41.779 59.9698 41.4486 60.1317L39.6833 61.0324C39.3586 61.2047 39.0009 61.3153 38.6305 61.3579C38.2602 61.4005 37.8845 61.3743 37.525 61.2808C37.1654 61.1872 36.8291 61.0282 36.5352 60.8128C36.2414 60.5974 35.9957 60.3299 35.8123 60.0255L32.1188 53.66C32.0054 53.4615 31.7291 53.6739 31.4482 53.8125C31.3087 53.8838 31.1556 53.9287 30.9976 53.9446C30.8395 53.9605 30.6797 53.9471 30.5272 53.9051C30.3748 53.8632 30.2326 53.7935 30.1089 53.7C29.9851 53.6066 29.8823 53.4912 29.8061 53.3605L27.8978 50.0705C27.8808 50.0424 27.8554 50.0196 27.8247 50.0048C27.7941 49.9901 27.7595 49.984 27.7252 49.9874C26.5527 50.114 25.3666 49.9094 24.3191 49.3999C23.2716 48.8903 22.4107 48.0991 21.8467 47.1278L20.7175 45.183C19.1444 42.4758 20.2638 39.0663 23.0893 37.6665L30.8756 33.6889L42.74 22.2413C42.8189 22.1627 42.8143 21.7516 42.9473 21.3219C43.1026 20.8281 43.3603 20.3679 43.7056 19.9674C44.0509 19.567 44.4771 19.2343 44.9597 18.9883L46.6016 18.152C46.8842 18.0088 47.2159 17.9766 47.5238 18.0623C47.8318 18.1481 48.0908 18.3449 48.2439 18.6095L60.6162 39.9248C60.7699 40.1896 60.8054 40.5007 60.7148 40.7899C60.6242 41.0792 60.4149 41.323 60.1328 41.4679L58.4909 42.304C57.8772 42.6171 57.1894 42.7807 56.4907 42.78C55.7919 42.7792 55.1045 42.614 54.4917 42.2995C54.4556 42.2808 54.4132 42.2758 54.3733 42.2856L38.4801 45.2375C38.4529 45.2423 38.4273 45.2531 38.4055 45.269C38.3837 45.285 38.3663 45.3055 38.3547 45.3291C38.3432 45.3526 38.3377 45.3783 38.3389 45.4042C38.3402 45.4301 38.348 45.4553 38.3617 45.4778L39.9398 48.1942C40.0161 48.3255 40.0639 48.4696 40.0807 48.6183C40.0975 48.767 40.0827 48.9173 40.0374 49.0606C39.992 49.2039 39.917 49.3375 39.8164 49.4536C39.7159 49.5697 39.5919 49.6661 39.4516 49.7373C39.1755 49.8805 38.8352 49.982 38.9486 50.1762ZM14.623 10.8444C15.0619 10.8444 15.4909 10.9664 15.8558 11.1948C16.2207 11.4232 16.5051 11.7479 16.6731 12.1277C16.841 12.5076 16.8849 12.9255 16.7993 13.3288C16.7137 13.732 16.5024 14.1025 16.192 14.3932C15.8817 14.6839 15.4863 14.8819 15.0559 14.9621C14.6255 15.0423 14.1793 15.0012 13.7738 14.8438C13.3684 14.6865 13.0218 14.42 12.778 14.0782C12.5342 13.7363 12.404 13.3344 12.404 12.9232C12.4037 12.6501 12.4608 12.3797 12.5722 12.1273C12.6835 11.8749 12.847 11.6456 13.0531 11.4525C13.2592 11.2594 13.504 11.1063 13.7734 11.0019C14.0428 10.8976 14.3315 10.8441 14.623 10.8444Z" fill="white"/>
</svg>
