<svg width="67" height="87" viewBox="0 0 67 87" fill="none" xmlns="http://www.w3.org/2000/svg">
<path d="M6.42483 5.90207H4.58237L10.2979 0.0849609L16.0115 5.90207H14.1711C13.4428 5.90207 12.8518 6.49305 12.8518 7.21947V16.5351H7.7424V7.21947C7.74223 6.49305 7.15125 5.90207 6.42483 5.90207ZM61.1743 0.0849609L55.4626 5.90207H57.3013C58.0277 5.90207 58.6187 6.49305 58.6187 7.21947V16.5351H63.7339V7.21947C63.7339 6.49305 64.3249 5.90207 65.0513 5.90207H66.888L61.1743 0.0849609ZM33.1767 7.21947V14.6306C34.8742 14.4913 36.5848 14.4933 38.2937 14.6381V7.21947C38.2937 6.49305 38.8826 5.90207 39.6111 5.90207H41.4479L35.738 0.0849609L30.0244 5.90207H31.8592C32.5877 5.90207 33.1767 6.49305 33.1767 7.21947ZM58.0289 56.0173C56.8921 55.4244 56.3689 55.4526 56.2768 55.5111C56.1846 55.5675 55.9249 56.0136 55.9399 57.282C55.9436 57.6283 55.8118 57.9614 55.571 58.2098C52.3545 61.554 51.3647 64.8361 52.5223 68.4306C56.3559 65.617 59.493 61.823 61.5366 57.3045L58.1886 56.0868C58.1343 56.0662 58.0816 56.0436 58.0289 56.0173ZM64.0876 45.9404C61.2799 47.301 59.3789 47.7076 58.2894 47.1844C57.5555 46.8325 57.0547 45.9537 56.7557 44.5027C56.6578 44.021 56.3003 43.6332 55.8279 43.4997C55.3537 43.3624 54.8456 43.5034 54.5086 43.859C54.0325 44.3634 53.6053 44.5931 53.2364 44.5384C52.8244 44.4801 51.6876 43.9889 50.0071 40.7124C49.7812 40.272 49.3296 39.9954 48.8346 39.9954H48.8288C48.0667 40.0047 47.696 39.905 47.534 39.8448C47.583 39.6304 47.7731 39.1091 48.5165 38.1322C48.8383 37.7087 48.8759 37.1347 48.6106 36.6737L45.4338 31.1803L49.6701 20.8372C58.6695 25.9146 64.2363 35.6029 64.0876 45.9404ZM57.2505 28.7997C56.3642 27.9153 55.1822 27.4259 53.9233 27.4259C52.6643 27.4259 51.4825 27.9153 50.596 28.7997C48.9099 30.4879 48.857 33.1018 50.4643 35.2999L52.8601 38.5763C53.1085 38.915 53.5037 39.1164 53.9233 39.1164C54.3448 39.1164 54.7401 38.915 54.9866 38.5763L57.3824 35.2999C58.9913 33.1018 58.9366 30.4877 57.2505 28.7997ZM52.4602 30.6656C51.5549 31.5689 51.9652 32.8901 52.5919 33.7463L53.9224 35.5662L55.2548 33.7463C55.8796 32.8901 56.2898 31.5689 55.3865 30.6656C54.9989 30.276 54.4775 30.0634 53.9222 30.0634C53.3674 30.0634 52.8478 30.276 52.4602 30.6656ZM25.4017 70.3257C24.2933 71.5979 22.6221 72.2509 20.9622 72.2509C19.4828 72.2509 18.094 71.7522 17.0495 70.8452C16.8613 70.6833 16.6883 70.5101 16.5301 70.3257C15.4215 71.5979 13.7524 72.2509 12.0943 72.2509C10.6149 72.2509 9.22616 71.7522 8.18165 70.8452C7.99525 70.6833 7.8204 70.5101 7.6622 70.3276C6.59883 71.5451 5.02365 72.1945 3.43539 72.2472V86.915H10.3383V76.3253C10.3383 75.5989 10.9293 75.0079 11.6557 75.0079H21.4023C22.1305 75.0079 22.7197 75.5989 22.7197 76.3253V86.915H29.6226V72.2472C28.2226 72.2039 26.9145 71.7089 25.9189 70.8452C25.731 70.6833 25.5579 70.5101 25.4017 70.3257ZM12.9751 86.915H20.0852V77.6446H12.9751V86.915ZM32.9462 63.5545H26.7171V66.6014C26.7171 68.982 28.6744 69.6161 29.8316 69.6161C30.9891 69.6161 32.9461 68.982 32.9461 66.6014L32.9462 63.5545ZM6.34327 66.6014V63.5545H0.112061V66.6014C0.112061 68.982 2.07126 69.6161 3.22843 69.6161C4.38407 69.6161 6.34327 68.982 6.34327 66.6014ZM12.0944 69.6161C13.2519 69.6161 15.2089 68.982 15.2089 66.6014V63.5545H8.9779V66.6014C8.97807 68.982 10.9371 69.6161 12.0944 69.6161ZM20.9622 69.6161C22.1215 69.6161 24.0806 68.982 24.0806 66.6014V63.5545H17.8456V66.6014C17.8458 68.982 19.8046 69.6161 20.9622 69.6161ZM28.6385 57.8465H4.41975L1.71171 60.9197H31.3466L28.6385 57.8465ZM25.3828 55.1534L25.2738 50.7817C22.8121 51.6003 21.0074 51.6134 19.6711 50.8399C18.559 50.1944 17.8908 49.0634 17.6857 47.4806C17.362 46.3176 16.9875 45.9166 16.8125 45.864C16.6373 45.8113 16.0861 45.9411 15.1393 46.771C15.1129 46.7936 15.0868 46.8143 15.0584 46.8369C12.0491 49.0784 9.49736 49.1893 7.5249 48.527C7.76772 50.7929 8.28717 53.0323 9.08513 55.2117H25.3866C25.3847 55.193 25.3828 55.1723 25.3828 55.1534ZM42.1586 55.9157L42.1793 55.8875L42.2415 55.8027L42.6178 55.287C43.2425 54.4307 43.6528 53.1096 42.7494 52.2063C42.3599 51.8167 41.8406 51.6041 41.2853 51.6041C40.73 51.6041 40.2107 51.8168 39.8211 52.2063C39.5915 52.4359 39.4466 52.6918 39.3693 52.9609C39.3618 52.9854 39.3543 53.0117 39.3487 53.0362C39.3129 53.1849 39.296 53.3354 39.296 53.4878C39.296 54.1296 39.5897 54.7864 39.9547 55.287L41.2853 57.1087L42.1586 55.9157ZM57.1462 49.5603C56.0962 49.0559 55.2906 48.1601 54.7411 46.8898C54.0164 47.1983 53.3634 47.2191 52.8628 47.1475C51.1428 46.9029 49.5959 45.4538 48.0282 42.6082C47.0722 42.533 45.7189 42.2319 45.1317 41.0519C44.5089 39.8061 45.1468 38.3927 45.9014 37.2579L42.8284 31.9395C42.6231 31.5858 42.5949 31.1586 42.7492 30.7802L47.3092 19.6465C45.9599 19.0425 44.5446 18.538 43.0731 18.1429C42.9356 18.1052 42.7983 18.0714 42.6608 18.0357C40.8449 21.4778 38.4359 24.1483 35.4832 25.9907L35.5396 31.7852C35.564 33.8309 34.1564 36.7103 33.0252 39.0251C32.9124 39.2565 32.8032 39.4824 32.6998 39.697C35.0918 42.5481 36.3151 45.7737 36.3471 49.3025L37.7491 50.5672C37.8148 50.4901 37.8845 50.4167 37.9579 50.3433C38.4021 49.901 38.9178 49.5567 39.4824 49.3232C40.0452 49.0918 40.6568 48.9694 41.2853 48.9694C42.5443 48.9694 43.7261 49.457 44.6126 50.3433C46.1728 51.9035 46.3345 54.2578 45.0737 56.3447C46.4909 57.5736 47.2907 59.1394 47.3583 60.8596C47.4469 63.1819 46.1539 65.5457 43.7978 67.3919L41.6185 73.3031C44.6861 72.6613 47.6013 71.5152 50.2548 69.9344V69.9325C48.4706 65.269 49.4737 60.9481 53.3073 56.7721C53.3392 55.7746 53.5634 54.0848 54.8976 53.2642C55.9797 52.5998 57.3779 52.7222 59.1694 53.6387L62.512 54.8545C62.7378 54.2071 62.9408 53.5448 63.1216 52.871C63.4735 51.5574 63.7277 50.2401 63.8858 48.9265C62.1074 49.6736 60.6301 50.0388 59.3749 50.0388C58.5407 50.0384 57.8068 49.8784 57.1462 49.5603ZM41.4573 66.1186L38.6418 73.7593C36.5566 73.9682 34.4188 73.9476 32.2601 73.6747V71.7626C34.127 70.976 35.5836 69.2352 35.5836 66.6022V62.2361C35.5836 62.1533 35.5761 62.0725 35.561 61.9933C35.5554 61.9613 35.5479 61.9292 35.5403 61.9029C35.5384 61.8954 35.5365 61.8878 35.5345 61.8821C35.527 61.8558 35.5195 61.8257 35.5081 61.8013C35.5024 61.7843 35.4969 61.7693 35.4913 61.7561C35.4818 61.7279 35.4725 61.7015 35.4592 61.6771C35.4555 61.6714 35.4536 61.6638 35.4499 61.6601C35.4347 61.6244 35.4179 61.5923 35.3991 61.5622C35.3972 61.5603 35.3953 61.5584 35.3953 61.5566C35.3765 61.5265 35.3576 61.4964 35.337 61.4681C35.3163 61.4398 35.2957 61.4135 35.2731 61.389C35.2674 61.3816 35.2599 61.372 35.2543 61.3646L30.2239 55.6567C29.9736 55.3726 29.6141 55.2107 29.2341 55.2107H28.0146C28.0183 55.1711 28.0204 55.1279 28.0183 55.0883L27.864 48.8515C27.8527 48.4129 27.627 48.0102 27.2581 47.7751C26.8911 47.538 26.4299 47.5022 26.0274 47.6716C22.7433 49.0792 21.4655 48.8327 20.9949 48.5598C20.8537 48.477 20.4247 48.2286 20.2911 47.075C20.2837 47.0092 20.2724 46.9489 20.2554 46.8867C19.721 44.8862 18.8459 43.7268 17.5794 43.3411C16.3279 42.961 14.9746 43.422 13.4446 44.7508C10.5954 46.8585 8.65692 46.3598 7.36789 45.5637C7.36789 43.102 7.69347 40.6312 8.34834 38.194C10.3075 30.8751 14.9993 24.7607 21.5577 20.9743C24.8134 19.0962 28.3346 17.9011 31.9536 17.4136C31.9607 17.4134 31.9675 17.4122 31.9745 17.4119C32.0212 17.4058 32.0677 17.3993 32.1145 17.3944C32.1209 17.3932 32.1277 17.3924 32.1342 17.3912C34.7143 17.0619 37.3435 17.0901 39.9555 17.489C38.2862 20.4005 36.1239 22.621 33.5099 24.0985C33.0922 24.3357 32.8361 24.7816 32.8417 25.2597L32.9056 31.8126C32.9226 33.2354 31.56 36.0224 30.6586 37.8686C30.3932 38.4125 30.141 38.9281 29.9396 39.3704C29.7213 39.854 29.8117 40.4205 30.1711 40.8101C32.6535 43.5014 33.8089 46.4541 33.7054 49.8398C33.6941 50.2292 33.8523 50.6 34.1401 50.8598L36.6713 53.1463C36.5792 54.3582 36.963 55.6588 37.8267 56.8424L40.2225 60.1189C40.4709 60.4558 40.8661 60.6572 41.2857 60.6572C41.7052 60.6572 42.1006 60.4558 42.3489 60.1189L43.5308 58.5004C44.2817 59.2156 44.6902 60.0492 44.724 60.962C44.7843 62.4976 43.7604 64.1576 41.9144 65.5107C41.7057 65.6632 41.5475 65.874 41.4573 66.1186ZM25.2367 27.5839C22.9482 25.2954 19.2239 25.2954 16.9355 27.5839C14.8315 29.6879 14.7787 32.9643 16.8038 35.7327L20.0257 40.1345C20.2741 40.4734 20.6694 40.6727 21.0889 40.6727C21.5105 40.6727 21.9039 40.4732 22.1521 40.1327L25.3703 35.7327C27.3935 32.9643 27.3407 29.6879 25.2367 27.5839ZM21.0864 28.5032C20.2565 28.5032 19.4283 28.8176 18.7979 29.448C17.3807 30.867 17.9829 32.8826 18.9296 34.1793L21.0862 37.1245L23.241 34.1774C24.1874 32.8826 24.7915 30.867 23.3725 29.4481C22.7424 28.8176 21.9144 28.5032 21.0864 28.5032Z" fill="white"/>
</svg>
