<svg width="95" height="88" viewBox="0 0 95 88" fill="none" xmlns="http://www.w3.org/2000/svg">
<path fill-rule="evenodd" clip-rule="evenodd" d="M14.9741 68.8917C10.9434 70.4987 6.19572 68.9541 3.9646 65.1172C1.73349 61.2801 2.76006 56.4259 6.177 53.7637L14.9741 68.8917ZM11.0294 21.4895L6.59959 21.3644L0 14.8118L6.51423 14.9959L6.32862 8.52829L12.9284 15.0807L13.0544 19.4788L23.3398 29.6906C22.4908 30.1604 21.7879 30.8587 21.3146 31.7014L11.0294 21.4895ZM25.8784 29.1268C24.9818 29.1268 24.1394 29.3552 23.4059 29.7564L26.891 33.2166C27.4501 33.7717 27.4501 34.6721 26.891 35.2272C26.3319 35.7823 25.4251 35.7823 24.8657 35.2272L21.3806 31.767C20.9766 32.495 20.7465 33.3317 20.7465 34.2218C20.7465 37.0357 23.044 39.3168 25.8782 39.3168C28.7123 39.3168 31.0101 37.0357 31.0101 34.2218C31.0101 31.4079 28.7127 29.1268 25.8784 29.1268ZM25.8784 16.5822C22.53 16.5822 19.3981 17.5025 16.7248 19.1013L21.4551 23.7978C22.8151 23.2283 24.3097 22.9134 25.8784 22.9134C32.169 22.9134 37.2686 27.9763 37.2686 34.222C37.2686 40.4676 32.169 45.5306 25.8784 45.5306C19.5878 45.5306 14.4883 40.4674 14.4883 34.222C14.4883 32.6645 14.8055 31.1806 15.3791 29.8303L10.6488 25.1338C9.03827 27.7881 8.11157 30.8975 8.11157 34.222C8.11157 43.964 16.066 51.8617 25.8784 51.8617C35.6908 51.8617 43.6452 43.9642 43.6452 34.222C43.6452 24.4797 35.6908 16.5822 25.8784 16.5822ZM81.1187 22.5289C80.4359 22.9215 79.5617 22.6902 79.1664 22.0122C78.7709 21.3343 79.0039 20.4663 79.6868 20.0737L88.9126 14.7853C89.5954 14.3927 90.4696 14.624 90.8651 15.3019C91.2605 15.9799 91.0276 16.8478 90.3447 17.2405L81.1187 22.5289ZM65.5912 11.2527C65.5912 12.0349 64.9525 12.6691 64.1646 12.6691C63.3767 12.6691 62.738 12.0349 62.738 11.2527V1.41642C62.738 0.634175 63.3767 0 64.1646 0C64.9525 0 65.5912 0.634175 65.5912 1.41642V11.2527ZM74.8757 15.0217L80.1027 6.0331C80.4951 5.35513 80.2596 4.48985 79.5768 4.10024C78.8939 3.71064 78.0222 3.9444 77.63 4.62237L72.403 13.6108C72.0106 14.2888 72.246 15.1542 72.9289 15.5437C73.6117 15.9333 74.4834 15.6995 74.8757 15.0217ZM80.3383 41.5151C79.6554 41.1255 79.42 40.26 79.8124 39.5822C80.2048 38.9042 81.0765 38.6705 81.7592 39.0601L90.339 43.978C91.0218 44.3676 91.2573 45.2331 90.8649 45.9109C90.4725 46.5889 89.6008 46.8226 88.9181 46.433L80.3383 41.5151ZM83.1138 32.0311C82.3229 32.0311 81.6817 31.3944 81.6817 30.6092C81.6817 29.8239 82.3229 29.1872 83.1138 29.1872H93.5678C94.3588 29.1872 95 29.8239 95 30.6092C95 31.3944 94.3588 32.0311 93.5678 32.0311H83.1138ZM76.5941 60.2252C74.6171 61.3584 72.0656 60.6797 70.9242 58.7169L43.0273 10.7434C41.8857 8.78044 42.5695 6.24734 44.5465 5.11417C46.5237 3.9808 49.075 4.65953 50.2165 6.62254L78.1135 54.596C79.2548 56.5588 78.5712 59.0919 76.5941 60.2252ZM8.11214 44.6376C6.75082 46.234 6.46707 48.575 7.57842 50.4861L18.5339 69.3257C19.9479 71.7572 23.0985 72.5954 25.5476 71.1917L37.0712 64.5862L30.9608 54.0786C29.3349 54.4877 27.6323 54.7057 25.8784 54.7057C18.3158 54.7054 11.704 50.6633 8.11214 44.6376ZM39.7719 63.5559L33.731 53.1676C41.2296 50.1002 46.5095 42.773 46.5095 34.2218C46.5095 27.7549 43.4894 21.9885 38.7743 18.2345L42.0242 14.7064L66.9659 57.5977L39.7719 63.5559ZM71.731 37.9326C73.0912 36.1036 73.8957 33.8422 73.8957 31.3941C73.8957 25.3075 68.9261 20.3734 62.7957 20.3734C62.3779 20.3734 61.9652 20.3964 61.5594 20.4411L71.731 37.9326ZM28.6115 72.719L37.6653 67.5292L50.4201 80.1928C51.3842 81.15 51.3842 82.7115 50.4201 83.6687L46.7807 87.2821C45.8165 88.2393 44.2436 88.2393 43.2795 87.2821L28.6115 72.719Z" fill="white"/>
</svg>
