<?xml version="1.0" encoding="utf-8"?>
<!-- Generator: Adobe Illustrator 26.0.1, SVG Export Plug-In . SVG Version: 6.00 Build 0)  -->
<svg version="1.1" id="Layer_1" xmlns="http://www.w3.org/2000/svg" xmlns:xlink="http://www.w3.org/1999/xlink" x="0px" y="0px"
	 viewBox="0 0 41.33 41.33" style="enable-background:new 0 0 41.33 41.33;" xml:space="preserve">
<style type="text/css">
	.st0{fill:#FFFFFF;}
</style>
<path class="st0" d="M16.42,14.75c1.01,0,1.82,0.82,1.82,1.82l0,0c0,1.01-0.82,1.82-1.82,1.82s-1.82-0.82-1.82-1.82
	S15.42,14.75,16.42,14.75z M20.67,0c11.41,0,20.67,9.25,20.67,20.67c0.01,6.42-2.98,12.47-8.07,16.38
	c-7.06-0.76-9.64-6.32-9.64-6.32l-5.56,1.81c0,0,0.91,5.46,4.39,8.72c-0.59,0.05-1.19,0.08-1.79,0.08C9.25,41.33,0,32.08,0,20.67
	C0,9.25,9.25,0,20.67,0z M29.97,14.88c0.35-1.92,1.49-3.11,3.5-3.5c-2.17-0.26-3.26-1.5-3.5-3.5c-0.25,2.07-1.38,3.27-3.5,3.5
	C28.83,11.73,30.01,12.89,29.97,14.88z M10.83,27.4l4.87-1.12l0.76,2.03l6.26-1.83l-0.63-2.18l4.79-1.9
	c-1.53-1.87-3.05-2.78-5.42-3.94c0.21-3.66-2.74-6.28-6.26-8.87c-2.8,3.43-4.04,6.48-2.12,10.76C11.48,22.06,10.8,24.82,10.83,27.4z
	"/>
</svg>
