<svg width="82" height="82" viewBox="0 0 82 82" fill="none" xmlns="http://www.w3.org/2000/svg">
<path d="M17.8081 24.5441C15.6256 25.4455 13.2814 25.4117 11.307 24.4695L4.78203 30.9931C5.72281 32.9703 5.75937 35.3131 4.87625 37.4436C3.97766 39.6373 2.29156 41.277 0.21875 42.0125V51.2389C2.29156 51.9744 3.97766 53.6127 4.85656 55.7544C5.75937 57.9355 5.72281 60.2797 4.78203 62.2569L11.307 68.7819C13.2814 67.8411 15.6214 67.8045 17.7575 68.6862C19.9498 69.5863 21.5909 71.2723 22.325 73.3452H25.5312V66.2436C15.3177 65.518 7.25 57.0228 7.25 46.625C7.25 36.2272 15.3177 27.732 25.5312 27.0078V19.9062H22.325C21.5895 21.9805 19.9498 23.6652 17.8081 24.5441Z" fill="white"/>
<path d="M42.4062 5.84375H70.5312V8.65625H42.4062V5.84375Z" fill="white"/>
<path d="M81.7812 11.4688H28.3438V81.7812H81.7827L81.7812 11.4688ZM48.0312 45.2188V42.4062H70.5312V45.2188H48.0312ZM64.9062 56.4688V59.2812H48.0312V56.4688H64.9062ZM50.8438 36.7812V33.9688H56.4688V36.7812H50.8438ZM59.2812 36.7812V33.9688H76.1562V36.7812H59.2812ZM35.375 18.5H74.75V29.75H35.375V18.5ZM33.9688 33.9688H48.0312V36.7812H33.9688V33.9688ZM35.375 55.0625H41.8241L35.375 61.5116V55.0625ZM35.375 69.125H41.8241L35.375 75.5741V69.125ZM37.3634 63.5L43.8125 57.0509V63.5H37.3634ZM37.3634 49.4375L43.8125 42.9884V49.4375H37.3634ZM35.375 47.4491V41H41.8241L35.375 47.4491ZM37.3634 77.5625L43.8125 71.1134V77.5625H37.3634ZM56.4688 73.3438H48.0312V70.5312H56.4688V73.3438ZM78.9688 73.227C78.9688 74.8428 77.6539 76.1562 76.0395 76.1562C74.6023 76.1562 73.3873 75.1269 73.1511 73.708L72.1836 67.9016C72.147 67.685 71.7744 67.6934 71.7477 67.91L70.6986 76.3123C70.5088 77.8269 69.215 78.9688 67.6892 78.9688C66.2 78.9688 64.9428 77.9028 64.6981 76.4347L63.8375 71.2639C63.7658 70.8392 63.403 70.5312 62.9713 70.5312C62.4875 70.5312 62.0938 70.925 62.0938 71.4088V76.1562H59.2812V71.4088C59.2812 69.3739 60.9364 67.7188 62.9713 67.7188C64.7825 67.7188 66.3139 69.0153 66.612 70.8013L67.4727 75.9734C67.5078 76.1872 67.8805 76.1802 67.9086 75.9636L68.9577 67.5612C69.1475 66.0481 70.4412 64.9062 71.967 64.9062C73.4562 64.9062 74.7134 65.9722 74.9581 67.4403L75.9256 73.2467C75.9453 73.3677 76.1562 73.3466 76.1562 73.227V67.7188H78.9688V73.227Z" fill="white"/>
<path d="M31.1562 8.65625H33.9688V0.21875H31.1562C29.6052 0.21875 28.3438 1.48016 28.3438 3.03125V5.84375C28.3438 7.39484 29.6052 8.65625 31.1562 8.65625Z" fill="white"/>
<path d="M81.7812 4.43746C81.7812 4.17871 81.6195 3.94527 81.3777 3.85386L73.3438 0.841675V8.03324L81.3763 5.02105C81.6195 4.92964 81.7812 4.69621 81.7812 4.43746Z" fill="white"/>
<path d="M42.4062 0.21875H70.5312V3.03125H42.4062V0.21875Z" fill="white"/>
<path d="M36.7812 0.21875H39.5938V8.65625H36.7812V0.21875Z" fill="white"/>
<path d="M12.875 46.625C12.875 53.9164 18.4255 59.9113 25.5312 60.6172V32.6328C18.4255 33.3387 12.875 39.3336 12.875 46.625Z" fill="white"/>
<path d="M39.5938 22.7188H42.4062V25.5312H39.5938V22.7188Z" fill="white"/>
<path d="M45.2188 22.7188H48.0312V25.5312H45.2188V22.7188Z" fill="white"/>
<path d="M50.8438 22.7188H53.6562V25.5312H50.8438V22.7188Z" fill="white"/>
<path d="M56.4688 22.7188H59.2812V25.5312H56.4688V22.7188Z" fill="white"/>
<path d="M62.0938 22.7188H64.9062V25.5312H62.0938V22.7188Z" fill="white"/>
<path d="M67.7188 22.7188H70.5312V25.5312H67.7188V22.7188Z" fill="white"/>
</svg>
