<svg width="37" height="27" viewBox="0 0 37 27" fill="none" xmlns="http://www.w3.org/2000/svg">
<path d="M14.8932 12.382L12.1136 4.33932L12.9182 4.99896C13.1024 5.15 13.3786 5.01927 13.3786 4.78108V2.27903H16.6938C17.0445 2.27903 17.3314 2.56592 17.3314 2.91663V11.7443C17.3314 12.095 17.0445 12.3819 16.6938 12.3819H14.8932V12.382ZM9.54325 0.441818H0.650391V12.3819H13.6699L9.54325 0.441818ZM19.9499 11.7444V2.9167C19.9499 2.56599 20.2368 2.2791 20.5875 2.2791H23.9026V4.78115C23.9026 5.01941 24.1788 5.15007 24.3631 4.99903L25.613 3.97423C25.7179 3.88817 25.8653 3.88817 25.9702 3.97423L27.2202 4.99903C27.4044 5.15007 27.6806 5.01934 27.6806 4.78115V2.2791H30.9958C31.3465 2.2791 31.6334 2.56599 31.6334 2.9167V11.7444C31.6334 12.0951 31.3465 12.382 30.9958 12.382H20.5874C20.2368 12.382 19.9499 12.0951 19.9499 11.7444ZM21.8627 10.3246C21.8627 10.4041 21.9277 10.4692 22.0072 10.4692H24.5238C24.6033 10.4692 24.6683 10.4041 24.6683 10.3246V9.02625C24.6683 8.94676 24.6033 8.88172 24.5238 8.88172H22.0072C21.9277 8.88172 21.8627 8.94676 21.8627 9.02625V10.3246ZM36.0605 24.3052H0.650391V26.5581H36.0605C36.2195 26.5581 36.3496 26.428 36.3496 26.269V24.5943C36.3496 24.4353 36.2195 24.3052 36.0605 24.3052ZM21.9402 15.9392H20.2147C20.6417 16.4054 20.9464 16.9857 21.0775 17.629C21.2085 16.9857 21.5131 16.4054 21.9402 15.9392ZM7.98463 20.748C7.55761 20.2818 7.25301 19.7016 7.12192 19.0582C6.99083 19.7016 6.68623 20.2818 6.25914 20.748H7.98463ZM0.650391 15.9392V16.3982C0.756766 16.2355 0.876004 16.082 1.00688 15.9392H0.650391ZM14.9624 20.748C14.5354 20.2818 14.2308 19.7016 14.0997 19.0582C13.9686 19.7016 13.664 20.2818 13.2369 20.748H14.9624ZM10.6108 20.748C9.28274 20.748 8.20634 19.6716 8.20634 18.3436C8.20634 17.0156 9.28274 15.9392 10.6108 15.9392C11.9388 15.9392 13.0152 17.0156 13.0152 18.3436C13.0152 19.6716 11.9387 20.748 10.6108 20.748ZM10.6108 19.5032C11.2518 19.5032 11.7704 18.9847 11.7704 18.3436C11.7704 17.7026 11.2518 17.184 10.6108 17.184C9.96977 17.184 9.45112 17.7026 9.45112 18.3436C9.45112 18.9847 9.96969 19.5032 10.6108 19.5032ZM7.98463 15.9392H6.25907C6.68609 16.4054 6.99076 16.9857 7.12185 17.629C7.25294 16.9857 7.55754 16.4054 7.98463 15.9392ZM36.3496 18.3436C36.3496 15.7006 34.1872 13.5382 31.5441 13.5382H0.650391V14.7829H31.5442C33.5001 14.7829 35.1048 16.3877 35.1048 18.3436C35.1048 20.2995 33.5001 21.9042 31.5442 21.9043C21.2462 21.9043 10.9483 21.9043 0.650391 21.9043V23.1491H31.5441C34.1871 23.1491 36.3496 20.9867 36.3496 18.3436ZM0.650391 20.289V20.748H1.00688C0.876004 20.6052 0.756766 20.4517 0.650391 20.289ZM3.63294 20.748C2.30498 20.748 1.22852 19.6716 1.22852 18.3436C1.22852 17.0156 2.30491 15.9392 3.63294 15.9392C4.96096 15.9392 6.03736 17.0156 6.03736 18.3436C6.03736 19.6716 4.96096 20.748 3.63294 20.748ZM3.63294 19.5032C4.27393 19.5032 4.79258 18.9847 4.79258 18.3436C4.79258 17.7026 4.27393 17.184 3.63294 17.184C2.99194 17.184 2.47329 17.7026 2.47329 18.3436C2.47329 18.9847 2.99194 19.5032 3.63294 19.5032ZM31.5442 20.748C30.2161 20.748 29.1397 19.6716 29.1397 18.3436C29.1397 17.0156 30.2161 15.9392 31.5442 15.9392C32.8619 15.9392 33.9486 17.0259 33.9486 18.3436C33.9486 19.6614 32.8619 20.748 31.5442 20.748ZM31.5442 19.5032C32.1852 19.5032 32.7038 18.9847 32.7038 18.3436C32.7038 17.7026 32.1852 17.184 31.5442 17.184C30.9032 17.184 30.3845 17.7026 30.3845 18.3436C30.3845 18.9847 30.9031 19.5032 31.5442 19.5032ZM21.9402 20.748C21.5132 20.2818 21.2086 19.7016 21.0775 19.0582C20.9464 19.7016 20.6418 20.2818 20.2147 20.748H21.9402ZM28.918 15.9392H27.1925C27.6195 16.4054 27.9242 16.9857 28.0553 17.629C28.1863 16.9857 28.4909 16.4054 28.918 15.9392ZM14.9624 15.9392H13.2369C13.6639 16.4054 13.9686 16.9857 14.0997 17.629C14.2308 16.9857 14.5354 16.4054 14.9624 15.9392ZM17.5885 20.748C16.2605 20.748 15.1841 19.6716 15.1841 18.3436C15.1841 17.0156 16.2605 15.9392 17.5885 15.9392C18.9165 15.9392 19.9929 17.0156 19.9929 18.3436C19.9929 19.6716 18.9165 20.748 17.5885 20.748ZM17.5885 19.5032C18.2296 19.5032 18.7482 18.9847 18.7482 18.3436C18.7482 17.7026 18.2296 17.184 17.5885 17.184C16.9475 17.184 16.4289 17.7026 16.4289 18.3436C16.4289 18.9847 16.9475 19.5032 17.5885 19.5032ZM28.918 20.748C28.4909 20.2818 28.1863 19.7015 28.0553 19.0582C27.9242 19.7016 27.6196 20.2818 27.1925 20.748H28.918ZM24.5663 20.748C23.2383 20.748 22.1619 19.6716 22.1619 18.3436C22.1619 17.0156 23.2383 15.9392 24.5663 15.9392C25.8944 15.9392 26.9708 17.0156 26.9708 18.3436C26.9708 19.6716 25.8944 20.748 24.5663 20.748ZM24.5663 19.5032C25.2073 19.5032 25.726 18.9847 25.726 18.3436C25.726 17.7026 25.2073 17.184 24.5663 17.184C23.9253 17.184 23.4067 17.7026 23.4067 18.3436C23.4067 18.9847 23.9253 19.5032 24.5663 19.5032Z" fill="white"/>
</svg>
