<svg width="85" height="85" viewBox="0 0 85 85" fill="none" xmlns="http://www.w3.org/2000/svg">
<path d="M55.4094 17.6375L57.2422 17.7438C58.1454 17.7969 58.9422 18.3016 59.3938 19.0719L62.1563 23.9329L71.9313 28.1032C70.7094 19.8157 66.0875 12.6172 59.5 7.99536L55.4094 17.611V17.6375Z" fill="white"/>
<path d="M35.3813 25.0219L38.3298 24.4375L32.0079 19.975C31.211 19.4172 30.786 18.461 30.8923 17.5047L32.3532 4.46252C24.1188 7.46409 17.5579 13.9719 14.5298 22.2063L35.3548 24.9953L35.3813 25.0219Z" fill="white"/>
<path d="M63.7501 63.75V53.1781C63.8829 53.0719 64.0423 53.0188 64.1485 52.8859C69.036 47.7063 71.8517 41.0656 72.197 34L59.2345 28.475C58.7032 28.2359 58.2517 27.8375 57.9595 27.3328L55.4626 22.9234L51.2923 22.6844C50.4423 22.6313 49.6454 22.1531 49.1938 21.4359C48.7423 20.6922 48.6626 19.7891 49.0079 18.9922L54.7985 5.36563C51.0267 3.63906 46.8563 2.65625 42.447 2.65625C40.8798 2.65625 39.3392 2.81562 37.8251 3.05469L36.311 16.5484L46.4313 23.6938C47.3079 24.3047 47.7063 25.3672 47.4938 26.4297C47.2813 27.4656 46.4579 28.2891 45.3954 28.475L35.9126 30.3344C35.7532 30.3609 35.5673 30.3875 35.4079 30.3875C35.3017 30.3875 35.1688 30.3875 35.0626 30.3875L13.122 27.4391C12.8298 29.0859 12.6704 30.7594 12.6704 32.4859C12.6704 40.1359 15.5657 47.3875 20.7985 52.9391C20.9048 53.0719 21.0642 53.125 21.197 53.2313V63.8031C19.736 63.8031 18.5407 64.9984 18.5407 66.4594V74.4281C18.5407 75.8891 19.736 77.0844 21.197 77.0844V79.7406C21.197 81.2016 22.3923 82.3969 23.8532 82.3969C25.3142 82.3969 26.5095 81.2016 26.5095 79.7406V77.0844H58.3845V79.7406C58.3845 81.2016 59.5798 82.3969 61.0407 82.3969C62.5017 82.3969 63.697 81.2016 63.697 79.7406V77.0844C65.1579 77.0844 66.3532 75.8891 66.3532 74.4281V66.4594C66.3532 64.9984 65.1579 63.8031 63.697 63.8031L63.7501 63.75ZM55.7017 37.1875L58.8095 47.8922C59.0751 48.9813 58.6501 49.8313 58.2517 50.3359C57.4813 51.3188 56.2063 51.9031 54.7985 51.9031C53.3907 51.9031 52.1157 51.2656 51.372 50.3094C51.5048 49.6188 51.5845 48.9281 51.5313 48.2109L50.5485 37.1875H55.7282H55.7017ZM39.711 37.1875H45.1829L46.2188 48.6359C46.2985 49.5656 45.847 50.2297 45.4751 50.6547C44.0142 52.2219 40.8798 52.2219 39.4454 50.6547C39.0735 50.2563 38.622 49.5656 38.7017 48.6625L39.7376 37.1609L39.711 37.1875ZM26.1642 47.9719L29.2985 37.1875H34.3985L33.4157 48.2375C33.3626 48.9813 33.4423 49.6984 33.6017 50.4156C32.8313 51.3188 31.6095 51.9031 30.2282 51.9031C28.847 51.9031 27.5454 51.3188 26.7751 50.3359C26.3767 49.8047 25.9251 48.9547 26.1642 47.9719ZM26.5626 56.4719C27.7048 56.9234 28.9267 57.2156 30.2017 57.2156C32.5392 57.2156 34.7438 56.4188 36.4438 55.0641C38.0907 56.4188 40.2157 57.2156 42.4735 57.2156C44.7313 57.2156 46.8829 56.3922 48.5298 55.0109C50.2032 56.3922 52.4345 57.2156 54.7985 57.2156C56.0735 57.2156 57.2954 56.9234 58.4376 56.4719V63.75H26.5626V56.4719Z" fill="white"/>
</svg>
