<svg width="74" height="74" viewBox="0 0 74 74" fill="none" xmlns="http://www.w3.org/2000/svg">
<path fill-rule="evenodd" clip-rule="evenodd" d="M72.6995 68.7545H1.25718C0.563562 68.7545 0 68.1476 0 67.454V47.1224C0 46.4288 0.563562 45.8219 1.25718 45.8219H72.6995C73.3931 45.8219 74 46.4288 74 47.1224V67.454C74 68.1476 73.3931 68.7545 72.6995 68.7545ZM2.51435 66.1968H71.4423V48.3796H2.51435V66.1968Z" fill="white"/>
<path fill-rule="evenodd" clip-rule="evenodd" d="M72.6995 74H1.25718C0.563562 74 0 73.4364 0 72.6995V67.454C0 66.7604 0.563562 66.1968 1.25718 66.1968H72.6995C73.3931 66.1968 74 66.7604 74 67.454V72.6995C74 73.4364 73.3931 74 72.6995 74Z" fill="white"/>
<path fill-rule="evenodd" clip-rule="evenodd" d="M72.6995 48.3796H1.25718C0.563562 48.3796 0 47.8161 0 47.1225V41.877C0 41.14 0.563562 40.5765 1.25718 40.5765H72.6995C73.3931 40.5765 74 41.14 74 41.877V47.1225C74 47.8161 73.3931 48.3796 72.6995 48.3796Z" fill="white"/>
<path fill-rule="evenodd" clip-rule="evenodd" d="M46.819 63.6391H27.0943C25.2302 63.6391 23.6262 62.0351 23.6262 60.1711V52.1945C23.6262 51.5009 24.1898 50.9373 24.8834 50.9373H29.4352C30.1289 50.9373 30.6924 51.5009 30.6924 52.1945V56.5729H43.2642V52.1945C43.2642 51.5009 43.8277 50.9373 44.5214 50.9373H49.0732C49.7668 50.9373 50.3737 51.5009 50.3737 52.1945C50.3737 53.5817 50.4604 59.9543 50.287 60.8213C49.9402 62.4687 48.5096 63.6391 46.819 63.6391Z" fill="white"/>
<path fill-rule="evenodd" clip-rule="evenodd" d="M31.9928 53.4517H22.3256C20.6783 53.4517 20.6783 50.9373 22.3256 50.9373H31.9928C33.6402 50.9373 33.6402 53.4517 31.9928 53.4517Z" fill="white"/>
<path fill-rule="evenodd" clip-rule="evenodd" d="M51.6309 53.4517H42.007C40.3163 53.4517 40.3163 50.9373 42.007 50.9373H51.6309C53.2783 50.9373 53.2783 53.4517 51.6309 53.4517Z" fill="white"/>
<path fill-rule="evenodd" clip-rule="evenodd" d="M64.7228 61.1681H58.3502C57.6566 61.1681 57.093 60.6046 57.093 59.911V52.1945C57.093 51.5009 57.6566 50.9373 58.3502 50.9373H64.7228C65.4164 50.9373 65.98 51.5009 65.98 52.1945V59.911C65.98 60.6046 65.4164 61.1681 64.7228 61.1681Z" fill="white"/>
<path fill-rule="evenodd" clip-rule="evenodd" d="M66.37 53.4517H56.7028C55.0555 53.4517 55.0555 50.9373 56.7028 50.9373H66.37C68.0174 50.9373 68.0174 53.4517 66.37 53.4517Z" fill="white"/>
<path fill-rule="evenodd" clip-rule="evenodd" d="M14.349 61.1681H7.97641C7.2828 61.1681 6.71924 60.6046 6.71924 59.911V52.1945C6.71924 51.5009 7.2828 50.9373 7.97641 50.9373H14.349C15.0426 50.9373 15.6062 51.5009 15.6062 52.1945V59.911C15.6062 60.6046 15.0426 61.1681 14.349 61.1681Z" fill="white"/>
<path fill-rule="evenodd" clip-rule="evenodd" d="M15.9963 53.4517H6.32901C4.68167 53.4517 4.68167 50.9373 6.32901 50.9373H15.9963C17.6436 50.9373 17.6436 53.4517 15.9963 53.4517Z" fill="white"/>
<path fill-rule="evenodd" clip-rule="evenodd" d="M46.7321 39.2759L49.8534 37.0217L48.7263 25.8805L43.5242 27.8313C44.0877 25.8371 44.3912 23.7563 44.3912 21.5454C44.3912 20.1148 44.2611 18.6842 44.001 17.297L48.3795 14.2191C48.4228 10.2308 48.943 0.303456 53.5382 0H53.7116C58.3502 0.303456 58.8704 10.2308 58.8704 14.2191L73.0028 24.1465C73.3062 24.3632 73.4796 24.6667 73.523 25.0568L73.9999 29.8688C73.9999 30.7791 73.0895 31.3427 72.2658 31.0393L58.5236 25.8805L57.4398 37.0217L60.5611 39.2759H46.7321Z" fill="white"/>
<path fill-rule="evenodd" clip-rule="evenodd" d="M21.5453 43.1342C9.66715 43.1342 -0.043457 33.4669 -0.043457 21.5454C-0.043457 9.66725 9.66715 0 21.5453 0C33.4234 0 43.0907 9.66725 43.0907 21.5454C43.0907 33.4669 33.4234 43.1342 21.5453 43.1342ZM21.5453 7.19625C13.6121 7.19625 7.15279 13.6122 7.15279 21.5454C7.15279 29.4786 13.6121 35.9379 21.5453 35.9379C29.4785 35.9379 35.8945 29.4786 35.8945 21.5454C35.8945 13.6555 29.4785 7.19625 21.5453 7.19625Z" fill="white"/>
<path fill-rule="evenodd" clip-rule="evenodd" d="M23.8863 22.8459H17.9039C17.2103 22.8459 16.6467 22.2824 16.6467 21.5454V14.3491C16.6467 12.7018 18.7276 13.0486 20.2882 13.0486C20.2882 12.355 20.1582 10.9678 21.5454 10.9678C22.9326 10.9678 22.8026 12.355 22.8026 13.0486C24.3632 13.0486 26.4007 12.7018 26.4007 14.3491C26.4007 15.0428 25.8371 15.6063 25.1435 15.6063C23.1494 15.6063 21.1552 15.6063 19.2044 15.6063V20.2882H25.1435C25.8805 20.2882 26.4007 20.8951 26.4007 21.5454V28.785C26.4007 30.4323 24.3632 30.0422 22.8026 30.0422C22.8026 30.7791 22.9326 32.1664 21.5454 32.1664C20.1582 32.1664 20.2882 30.7791 20.2882 30.0422C18.7276 30.0422 16.6467 30.4323 16.6467 28.785C16.6467 28.0914 17.2103 27.5278 17.9039 27.5278H23.8863V22.8459Z" fill="white"/>
</svg>
