<?xml version="1.0" encoding="utf-8"?>
<!-- Generator: Adobe Illustrator 26.0.1, SVG Export Plug-In . SVG Version: 6.00 Build 0)  -->
<svg version="1.1" id="Layer_1" xmlns="http://www.w3.org/2000/svg" xmlns:xlink="http://www.w3.org/1999/xlink" x="0px" y="0px"
	 viewBox="0 0 40.52 41.33" style="enable-background:new 0 0 40.52 41.33;" xml:space="preserve">
<style type="text/css">
	.st0{fill:#FFFFFF;}
</style>
<path class="st0" d="M14.4,19.27C14.4,19.27,14.4,19.27,14.4,19.27c-1.21-1.21-1.21-3.17,0-4.38c1.21-1.21,3.17-1.21,4.37,0
	c1.21,1.21,1.21,3.17,0,4.37C17.56,20.48,15.61,20.48,14.4,19.27 M12.68,13.05c-4.17,4.18-4.17,10.94,0,15.12
	c2,2.01,4.73,3.14,7.56,3.13c2.84,0.01,5.56-1.12,7.56-3.13c4.17-4.18,4.17-10.95,0-15.12c-2-2.01-4.73-3.14-7.56-3.13
	C17.41,9.91,14.68,11.04,12.68,13.05 M10.01,30.84c-5.65-5.64-5.65-14.82,0-20.46c2.71-2.72,6.4-4.25,10.24-4.24
	c3.84-0.01,7.53,1.51,10.24,4.24c5.64,5.64,5.64,14.82,0,20.47c-2.71,2.72-6.4,4.25-10.24,4.24C16.4,35.09,12.71,33.57,10.01,30.84
	 M2.24,11.39c-3.93,7.62-2.7,17.21,3.69,23.6c2.82,2.83,6.41,4.76,10.33,5.54v0c7.57,1.71,15.5,0.69,22.39-2.89l0.02-0.01
	c0.12-0.07,0.24-0.16,0.34-0.25c0,0,0,0,0,0c0.44-0.44,0.44-1.16,0-1.61c-0.04-0.05-0.08-0.09-0.12-0.14
	c-1.26-1.35-1.64-3.31-0.96-5.03c0.03-0.07,0.17-0.33,0.21-0.4c4.09-7.66,2.9-17.4-3.56-23.86c-2.83-2.83-6.43-4.76-10.35-5.54
	L24.2,0.76C16.68-0.89,8.82,0.16,1.99,3.71L1.87,3.77C1.76,3.82,1.66,3.89,1.56,3.96C1.54,3.97,1.53,3.98,1.51,3.99
	c-0.37,0.37-0.44,0.95-0.17,1.4C1.37,5.43,1.4,5.47,1.44,5.51c0.06,0.07,0.17,0.18,0.2,0.2c1.28,1.41,1.61,3.44,0.84,5.18
	C2.4,11.06,2.32,11.23,2.24,11.39"/>
</svg>
