<svg width="32" height="30" viewBox="0 0 32 30" fill="none" xmlns="http://www.w3.org/2000/svg">
<path d="M8.7826 4.43666C8.7826 2.17129 10.6191 0.334751 12.8848 0.334751C15.1502 0.334751 16.9869 2.17129 16.9869 4.43666C16.9869 6.70204 15.1502 8.53852 12.8848 8.53852C10.6191 8.53858 8.7826 6.70204 8.7826 4.43666ZM14.8561 11.3331C14.8973 10.4399 15.2047 9.61324 15.6994 8.92981C15.3522 8.8571 14.9934 8.81848 14.6252 8.81848H11.1449C10.7777 8.81848 10.4194 8.8568 10.074 8.92861C10.6004 9.65879 10.9153 10.5506 10.9205 11.5159C11.5604 11.164 12.2946 10.9636 13.0745 10.9636C13.7071 10.9636 14.3094 11.0954 14.8561 11.3331ZM15.5505 11.7013C16.742 12.4485 17.5775 13.7123 17.7303 15.1799C18.2158 15.4068 18.7553 15.5377 19.3269 15.5377C21.4142 15.5377 23.1061 13.8456 23.1061 11.7583C23.1061 9.67078 21.4142 7.97907 19.3269 7.97907C17.2586 7.97913 15.5819 9.64082 15.5505 11.7013ZM13.0744 19.4398C15.1615 19.4398 16.8535 17.7472 16.8535 15.6605C16.8535 13.5735 15.1615 11.8812 13.0744 11.8812C10.9873 11.8812 9.29453 13.5734 9.29453 15.6605C9.29459 17.7472 10.9873 19.4398 13.0744 19.4398ZM14.6776 19.697H11.471C8.80289 19.697 6.63172 21.868 6.63172 24.5365V28.4585L6.64193 28.52L6.91186 28.6039C9.45827 29.3992 11.6705 29.6652 13.4915 29.6652C17.0475 29.6652 19.1095 28.6512 19.2366 28.5863L19.4891 28.4585H19.5159V24.5364C19.516 21.868 17.3461 19.697 14.6776 19.697ZM20.9308 15.7957H17.7483C17.7138 17.069 17.1703 18.2158 16.3109 19.04C18.6826 19.7453 20.4179 21.9445 20.4179 24.5425V25.751C23.5595 25.6353 25.3703 24.7454 25.4895 24.6854L25.7421 24.5569H25.7689V20.6341C25.7693 17.9664 23.5983 15.7957 20.9308 15.7957ZM21.7815 7.89848C22.9731 8.64578 23.8085 9.90962 23.961 11.3772C24.4466 11.6041 24.986 11.7348 25.5576 11.7348C27.6454 11.7348 29.3371 10.043 29.3371 7.95596C29.3371 5.86836 27.6453 4.1767 25.5576 4.1767C23.4896 4.17646 21.813 5.83851 21.7815 7.89848ZM27.1612 11.9928H23.9793C23.9448 13.2662 23.4014 14.4129 22.5419 15.2371C24.9136 15.9421 26.6489 18.1417 26.6489 20.7396V21.9481C29.7902 21.8327 31.6013 20.9429 31.7206 20.8825L31.9728 20.7544H32V16.8312C32.0004 14.1636 29.8294 11.9928 27.1612 11.9928ZM6.44315 15.5378C7.18251 15.5378 7.87 15.3218 8.45303 14.9542C8.63844 13.7459 9.28623 12.6899 10.2112 11.971C10.2151 11.9 10.2216 11.83 10.2216 11.7584C10.2216 9.67085 8.52926 7.97913 6.44315 7.97913C4.35524 7.97913 2.66359 9.67078 2.66359 11.7584C2.66359 13.8461 4.35518 15.5378 6.44315 15.5378ZM9.8372 19.04C8.98174 18.2197 8.44014 17.0793 8.40026 15.8133C8.28261 15.8045 8.16578 15.7957 8.0455 15.7957H4.8393C2.17082 15.7957 0 17.9664 0 20.6345V24.5569L0.00990914 24.618L0.280202 24.7023C2.32256 25.3409 4.14602 25.6344 5.72975 25.7262V24.542C5.73005 21.9445 7.46492 19.7449 9.8372 19.04Z" fill="white"/>
</svg>
