<svg width="32" height="32" viewBox="0 0 32 32" fill="none" xmlns="http://www.w3.org/2000/svg">
<path d="M14.4999 9C14.2173 8.99843 13.94 9.0772 13.7003 9.22712C13.4607 9.37704 13.2686 9.59196 13.1463 9.84684C13.0241 10.1017 12.9768 10.3861 13.0099 10.6668C13.043 10.9475 13.1552 11.2131 13.3334 11.4325C12.0413 13.437 11.1604 15.6782 10.7419 18.026C10.3914 18.0854 10.0732 18.2668 9.84356 18.5382C9.61391 18.8096 9.48764 19.1534 9.48706 19.5089C9.48649 19.8644 9.61165 20.2087 9.84042 20.4808C10.0692 20.7529 10.3868 20.9353 10.7371 20.9958C11.0874 21.0564 11.4479 20.991 11.7547 20.8114C12.0614 20.6318 12.2948 20.3495 12.4136 20.0144C12.5323 19.6794 12.5287 19.3131 12.4034 18.9804C12.2781 18.6477 12.0392 18.37 11.7289 18.1965C12.1299 15.9784 12.9634 13.8608 14.1819 11.9645C14.2863 11.9878 14.3929 11.9997 14.4999 12C14.8977 12 15.2793 11.842 15.5606 11.5607C15.8419 11.2794 15.9999 10.8978 15.9999 10.5C15.9999 10.1022 15.8419 9.72065 15.5606 9.43934C15.2793 9.15804 14.8977 9 14.4999 9Z" fill="white"/>
<path d="M16 1C13.0333 1 10.1332 1.87973 7.66645 3.52796C5.19972 5.17618 3.27713 7.51886 2.14181 10.2597C1.0065 13.0006 0.709449 16.0166 1.28823 18.9264C1.86701 21.8361 3.29562 24.5088 5.3934 26.6066C7.49119 28.7044 10.1639 30.133 13.0737 30.7118C15.9834 31.2906 18.9994 30.9935 21.7403 29.8582C24.4812 28.7229 26.8238 26.8003 28.4721 24.3336C30.1203 21.8668 31 18.9667 31 16C30.9955 12.0231 29.4137 8.21044 26.6016 5.39837C23.7896 2.5863 19.9769 1.0045 16 1ZM22.5 6L25.3655 7.228L22.5 8.456L19.6345 7.228L22.5 6ZM26 8.044V11.5L23 12.7855V9.3295L26 8.044ZM19 8.044L22 9.3295V12.7855L19 11.5V8.044ZM19.5 28.5H14.5V24.983C14.5 24.5897 14.6563 24.2125 14.9344 23.9344C15.2125 23.6562 15.5897 23.5 15.983 23.5H17C16.7033 23.5 16.4133 23.412 16.1667 23.2472C15.92 23.0824 15.7277 22.8481 15.6142 22.574C15.5007 22.2999 15.471 21.9983 15.5288 21.7074C15.5867 21.4164 15.7296 21.1491 15.9393 20.9393C16.1491 20.7296 16.4164 20.5867 16.7074 20.5288C16.9983 20.4709 17.2999 20.5007 17.574 20.6142C17.8481 20.7277 18.0824 20.92 18.2472 21.1666C18.412 21.4133 18.5 21.7033 18.5 22C18.5 22.3978 18.342 22.7794 18.0607 23.0607C17.7794 23.342 17.3978 23.5 17 23.5H18.017C18.4103 23.5 18.7875 23.6562 19.0656 23.9344C19.3438 24.2125 19.5 24.5897 19.5 24.983V28.5ZM29.983 15.3265C29.9935 15.55 30 15.774 30 16C30.0034 19.0148 29.0282 21.9494 27.221 24.3625L25.5 23.5L23 20C23 20 18.5 18 18 18C17.1576 18.1174 16.3228 18.2844 15.5 18.5L13.4675 19.1775C13.4855 19.2842 13.4963 19.3919 13.5 19.5C13.5018 20.0555 13.3178 20.5957 12.9774 21.0347C12.6369 21.4737 12.1596 21.7863 11.6211 21.9229C11.0826 22.0595 10.514 22.0122 10.0054 21.7885C9.49693 21.5649 9.07775 21.1777 8.81451 20.6885L8.50001 20.5L4.30751 23.681C3.26224 22.0979 2.55169 20.3178 2.21951 18.45L3.00001 16.5L6.50001 15.5L7.00001 11.5L8.50001 9L7.50001 7.5V4.886C9.0055 3.73098 10.7304 2.8945 12.5695 2.4275L14 5L13.5 7L14.5 8C14.9849 7.99807 15.4597 8.13773 15.8663 8.40185C16.2729 8.66597 16.5936 9.04305 16.7889 9.48682C16.9843 9.93059 17.0458 10.4217 16.966 10.9C16.8861 11.3782 16.6684 11.8227 16.3395 12.179L18 15.5L24 16.5L27 14L29.983 15.3265Z" fill="white"/>
</svg>
